<mxfile host="drawio-plugin" modified="2024-03-12T15:50:03.183Z" agent="5.0 (Macintosh; Intel Mac OS X 10_15_7) AppleWebKit/537.36 (KHTML, like Gecko) Chrome/111.0.0.0 Safari/537.36" etag="Nhouf1OAtuV4To7tx_jE" version="20.5.3" type="embed"><diagram id="DWjpSvbVxY2pOprUcE6g" name="Page-1"><mxGraphModel dx="1050" dy="1103" grid="0" gridSize="10" guides="1" tooltips="1" connect="1" arrows="1" fold="1" page="0" pageScale="1" pageWidth="827" pageHeight="1169" math="0" shadow="0"><root><mxCell id="0"/><mxCell id="1" parent="0"/><mxCell id="152" value="" style="rounded=0;whiteSpace=wrap;html=1;sketch=1;fontFamily=Architects Daughter;fontSource=https%3A%2F%2Ffonts.googleapis.com%2Fcss%3Ffamily%3DArchitects%2BDaughter;strokeColor=none;" vertex="1" parent="1"><mxGeometry x="115" y="-1" width="680" height="443" as="geometry"/></mxCell><mxCell id="44" value="datamesh-manager.com" style="text;html=1;strokeColor=none;fillColor=none;align=right;verticalAlign=middle;whiteSpace=wrap;rounded=0;sketch=1;fillStyle=hachure;fontFamily=Architects Daughter;fontSource=https%3A%2F%2Ffonts.googleapis.com%2Fcss%3Ffamily%3DArchitects%2BDaughter;fontSize=12;fontColor=#000000;" parent="1" vertex="1"><mxGeometry x="507" y="410" width="270" height="30" as="geometry"/></mxCell><mxCell id="45" value="Data Consumer Journey" style="text;html=1;strokeColor=none;fillColor=none;align=center;verticalAlign=middle;whiteSpace=wrap;rounded=0;sketch=1;fontFamily=Architects Daughter;fontSource=https%3A%2F%2Ffonts.googleapis.com%2Fcss%3Ffamily%3DArchitects%2BDaughter;fontSize=21;fontStyle=1" parent="1" vertex="1"><mxGeometry x="133" y="11" width="644" height="30" as="geometry"/></mxCell><mxCell id="93" value="Awareness" style="shape=step;perimeter=stepPerimeter;whiteSpace=wrap;html=1;fixedSize=1;fillColor=#f8cecc;strokeColor=#b85450;sketch=1;fontFamily=Architects Daughter;fontSource=https%3A%2F%2Ffonts.googleapis.com%2Fcss%3Ffamily%3DArchitects%2BDaughter;size=20.571428571428726;" vertex="1" parent="1"><mxGeometry x="148" y="115" width="145" height="44.5" as="geometry"/></mxCell><mxCell id="94" value="Consideration" style="shape=step;perimeter=stepPerimeter;whiteSpace=wrap;html=1;fixedSize=1;fillColor=#f8cecc;strokeColor=#b85450;sketch=1;fontFamily=Architects Daughter;fontSource=https%3A%2F%2Ffonts.googleapis.com%2Fcss%3Ffamily%3DArchitects%2BDaughter;size=19.0000000000003;" vertex="1" parent="1"><mxGeometry x="304" y="113.5" width="145" height="46" as="geometry"/></mxCell><mxCell id="95" value="Decision" style="shape=step;perimeter=stepPerimeter;whiteSpace=wrap;html=1;fixedSize=1;fillColor=#f8cecc;strokeColor=#b85450;sketch=1;fontFamily=Architects Daughter;fontSource=https%3A%2F%2Ffonts.googleapis.com%2Fcss%3Ffamily%3DArchitects%2BDaughter;" vertex="1" parent="1"><mxGeometry x="463" y="113.5" width="145" height="46" as="geometry"/></mxCell><mxCell id="97" value="Use" style="shape=step;perimeter=stepPerimeter;whiteSpace=wrap;html=1;fixedSize=1;fillColor=#f8cecc;strokeColor=#b85450;sketch=1;fontFamily=Architects Daughter;fontSource=https%3A%2F%2Ffonts.googleapis.com%2Fcss%3Ffamily%3DArchitects%2BDaughter;" vertex="1" parent="1"><mxGeometry x="618" y="113.5" width="145" height="46" as="geometry"/></mxCell><mxCell id="103" value="&lt;ul&gt;&lt;li&gt;&lt;span style=&quot;background-color: initial;&quot;&gt;Discover Data Products&lt;/span&gt;&lt;/li&gt;&lt;li&gt;&lt;span style=&quot;background-color: initial;&quot;&gt;Understand Product Offerings&lt;/span&gt;&lt;/li&gt;&lt;li&gt;&lt;span style=&quot;background-color: initial;&quot;&gt;Initial Interest&lt;/span&gt;&lt;/li&gt;&lt;/ul&gt;" style="rounded=0;whiteSpace=wrap;sketch=1;fontFamily=Architects Daughter;align=left;spacing=1;verticalAlign=top;html=1;fontSource=https%3A%2F%2Ffonts.googleapis.com%2Fcss%3Ffamily%3DArchitects%2BDaughter;spacingLeft=-20;spacingTop=-7;" vertex="1" parent="1"><mxGeometry x="147" y="175" width="145" height="130" as="geometry"/></mxCell><mxCell id="104" value="&lt;ul&gt;&lt;li&gt;Understand data model and semantics&lt;/li&gt;&lt;li&gt;Evaluate data quality and usage&lt;/li&gt;&lt;li&gt;Review user feedback&lt;/li&gt;&lt;li&gt;Compare options&lt;/li&gt;&lt;/ul&gt;" style="rounded=0;whiteSpace=wrap;html=1;sketch=1;fontFamily=Architects Daughter;fontSource=https%3A%2F%2Ffonts.googleapis.com%2Fcss%3Ffamily%3DArchitects%2BDaughter;align=left;labelPosition=center;verticalLabelPosition=middle;verticalAlign=top;spacing=1;spacingLeft=-20;spacingTop=-7;" vertex="1" parent="1"><mxGeometry x="304" y="175" width="145" height="130" as="geometry"/></mxCell><mxCell id="105" value="&lt;ul&gt;&lt;li&gt;Check compliance and security&lt;/li&gt;&lt;li&gt;&lt;span style=&quot;background-color: initial;&quot;&gt;Make decision&lt;/span&gt;&lt;/li&gt;&lt;li&gt;&lt;span style=&quot;background-color: initial;&quot;&gt;Plan usage&lt;/span&gt;&lt;br&gt;&lt;/li&gt;&lt;li&gt;Request access&lt;/li&gt;&lt;li&gt;Prepare data integration&lt;/li&gt;&lt;/ul&gt;" style="rounded=0;whiteSpace=wrap;html=1;sketch=1;fontFamily=Architects Daughter;fontSource=https%3A%2F%2Ffonts.googleapis.com%2Fcss%3Ffamily%3DArchitects%2BDaughter;align=left;labelPosition=center;verticalLabelPosition=middle;verticalAlign=top;spacing=1;spacingLeft=-20;spacingTop=-7;" vertex="1" parent="1"><mxGeometry x="463" y="175" width="145" height="130" as="geometry"/></mxCell><mxCell id="107" value="&lt;ul&gt;&lt;li&gt;Integrate data&lt;/li&gt;&lt;li&gt;Receive support&lt;/li&gt;&lt;li&gt;Provide feedback&lt;/li&gt;&lt;li&gt;Migrate to new major version&lt;/li&gt;&lt;li&gt;Be notified on quality issues&lt;/li&gt;&lt;/ul&gt;" style="rounded=0;whiteSpace=wrap;html=1;sketch=1;fontFamily=Architects Daughter;fontSource=https%3A%2F%2Ffonts.googleapis.com%2Fcss%3Ffamily%3DArchitects%2BDaughter;align=left;labelPosition=center;verticalLabelPosition=middle;verticalAlign=top;spacing=1;spacingLeft=-20;spacingTop=-7;" vertex="1" parent="1"><mxGeometry x="618" y="175" width="145" height="130" as="geometry"/></mxCell><mxCell id="122" value="Data Management Platform" style="rounded=0;whiteSpace=wrap;html=1;verticalAlign=bottom;fillColor=#D9EDFF;sketch=1;fontFamily=Architects Daughter;fontSource=https%3A%2F%2Ffonts.googleapis.com%2Fcss%3Ffamily%3DArchitects%2BDaughter;strokeColor=#99CCFF;fillStyle=hachure;" vertex="1" parent="1"><mxGeometry x="133" y="318" width="644" height="92" as="geometry"/></mxCell><mxCell id="135" value="" style="group" vertex="1" connectable="0" parent="1"><mxGeometry x="463" y="333" width="145" height="45" as="geometry"/></mxCell><mxCell id="126" value="Approval Workflow" style="rounded=0;whiteSpace=wrap;html=1;sketch=1;fontFamily=Architects Daughter;fontSource=https%3A%2F%2Ffonts.googleapis.com%2Fcss%3Ffamily%3DArchitects%2BDaughter;spacingLeft=52;align=left;" vertex="1" parent="135"><mxGeometry y="-0.7799999999999727" width="145" height="45" as="geometry"/></mxCell><mxCell id="133" value="" style="shape=image;verticalLabelPosition=bottom;labelBackgroundColor=#ffffff;verticalAlign=top;aspect=fixed;imageAspect=0;image=data:image/svg+xml,PHN2ZyB4bWxucz0iaHR0cDovL3d3dy53My5vcmcvMjAwMC9zdmciIHZpZXdCb3g9Ii0wLjExOTk3NTQzMjc1MzU2MjkzIDcuNzEyNjYzNjUwNTEyNjk1IDI1MC40MTAzMjQwOTY2Nzk3IDIzNC4xOTQyNTk2NDM1NTQ3IiB3aWR0aD0iMjUwLjQxMDMyNDA5NjY3OTciIGhlaWdodD0iMjM0LjE5NDI1OTY0MzU1NDciPiYjeGE7ICAmI3hhOzxnIHRyYW5zZm9ybT0ibWF0cml4KDEwLjQxNjY2NjY2NjY2NjY2NiwwLDAsMTAuNDE2NjY2NjY2NjY2NjY2LDAsMCkiPjxnPiYjeGE7ICAgIDxwYXRoIGQ9Ik0xMy40MiwxNC4xOWEyLjEzLDIuMTMsMCwwLDAtLjM4LTEsMi4zOCwyLjM4LDAsMCwwLS42My0uNTUsNC40OCw0LjQ4LDAsMCwwLTEtLjQzLDEwLjg5LDEwLjg5LDAsMCwwLTIuNTItLjQsMTAuMjgsMTAuMjgsMCwwLDAtMS43Ny4xbC4wNy0xLjIxYzAtLjEzLS4yLS44OCwwLS44MywwLDAsMCwuMDcsMCwuMDkuMi0uMjEuNjUtLjI3LDEtLjQ0YTIuMjIsMi4yMiwwLDAsMCwuMzUtLjI1LDIuNTEsMi41MSwwLDAsMCwuNzYtMkEyLjQ2LDIuNDYsMCwwLDAsOC4xMyw1LjM3YTIuMzMsMi4zMywwLDAsMC0yLjYxLjFBMi44LDIuOCwwLDAsMCw0LjI0LDcuNjIsMS45MywxLjkzLDAsMCwwLDQuNzYsOWEzLjM5LDMuMzksMCwwLDAsMS41Ny45YzAsLjI3LjA2LjY2LjA3Ljc4VjEyYy0uMjguMDctLjM3LDAtMS4zMS4wOWExNy45MiwxNy45MiwwLDAsMC0yLC4zLDUuNDksNS40OSwwLDAsMC0xLjYxLjQ4LDIuMjgsMi4yOCwwLDAsMC0uODguODksNSw1LDAsMCwwLS41MywxLjc0QTIyLjUxLDIyLjUxLDAsMCwwLDAsMTguMDdhMTEuNDUsMTEuNDUsMCwwLDAsLjE0LDIuMzdBMywzLDAsMCwwLDEsMjJhNC40Miw0LjQyLDAsMCwwLDIuMjYsMS4wOCwxNy41LDE3LjUsMCwwLDAsMy40Ni4xYy43NSwwLDEuNDksMCwyLjIzLS4wNkExMS40OCwxMS40OCwwLDAsMCwxMC40NCwyM2E1LjUsNS41LDAsMCwwLC43NS0uMTksNCw0LDAsMCwwLC41Mi0uMjEsMy4yNiwzLjI2LDAsMCwwLDEuNTktMi4zOSwyMC4yNywyMC4yNywwLDAsMCwuMS0zLjg1QTEyLjU4LDEyLjU4LDAsMCwwLDEzLjQyLDE0LjE5Wk01LjQ4LDguNzNhMS4yNiwxLjI2LDAsMCwxLS4zOS0xLjA2LDEuODksMS44OSwwLDAsMSwxLTEuMzIsMS4zMiwxLjMyLDAsMCwxLDEuNDQtLjA3LDEuNDQsMS40NCwwLDAsMSwuNjIsMS4wNywxLjUzLDEuNTMsMCwwLDEtLjM4LDEuMjIsNC40OSw0LjQ5LDAsMCwxLS45NC41MywxLjUzLDEuNTMsMCwwLDAtLjMuMjVBMy4wNiwzLjA2LDAsMCwxLDUuNDgsOC43M1ptNyw3LjU3QTIwLjQxLDIwLjQxLDAsMCwxLDEyLjMyLDIwYTIuMjYsMi4yNiwwLDAsMS0xLjExLDEuNjUsMiwyLDAsMCwxLS40NS4xNyw0Ljg3LDQuODcsMCwwLDEtLjUyLjEyLDExLjE3LDExLjE3LDAsMCwxLTEuMzkuMTZjLS43MiwwLTEuNDQsMC0yLjE4LjA1YTE2LjEzLDE2LjEzLDAsMCwxLTMuMjUtLjA3LDMuMzgsMy4zOCwwLDAsMS0xLjc0LS43OSwyLDIsMCwwLDEtLjU2LTEuMDUsMTAuMTYsMTAuMTYsMCwwLDEtLjE4LTIuMTYsMjIuMzUsMjIuMzUsMCwwLDEsMC0yLjQ2LDQuMDUsNC4wNSwwLDAsMSwuMzktMS40NywxLjQ1LDEuNDUsMCwwLDEsLjU2LS42MSw0LjY2LDQuNjYsMCwwLDEsMS4zOC0uNDUsMTYuNTIsMTYuNTIsMCwwLDEsMS45Mi0uMzVsMy42NC0uMjJhMTAuMjYsMTAuMjYsMCwwLDEsMi4zMy40Myw0LjA3LDQuMDcsMCwwLDEsLjcyLjMsMS41NywxLjU3LDAsMCwxLC41Mi40NCwxLjYxLDEuNjEsMCwwLDEsLjIyLjlBMTcsMTcsMCwwLDEsMTIuNDksMTYuM1oiIHN0eWxlPSJmaWxsOiAjMDAwMDAwO2ZpbGwtcnVsZTogZXZlbm9kZCIvPiYjeGE7ICAgIDxwYXRoIGQ9Ik04LjkyLDE4Ljc5YTQsNCwwLDAsMS0yLC41MWMtLjIsMC0uNDEsMC0uNjEsMEE0LjMsNC4zLDAsMCwxLDQuNzYsMTlhLjI5LjI5LDAsMCwwLS4yOS41LDQuMzIsNC4zMiwwLDAsMCwxLjYyLjg2LDIuODIsMi44MiwwLDAsMCwuODIuMDcsMy4xMSwzLjExLDAsMCwwLC44LS4xMyw0LjIxLDQuMjEsMCwwLDAsMS41OS0uOTQuMzIuMzIsMCwwLDAsLjA3LS40NkEuMzMuMzMsMCwwLDAsOC45MiwxOC43OVoiIHN0eWxlPSJmaWxsOiAjMzM5N0ZBO2ZpbGwtcnVsZTogZXZlbm9kZCIvPiYjeGE7ICAgIDxwYXRoIGQ9Ik01LjA5LDE1LjgyYTEuMTcsMS4xNywwLDAsMC0xLjctLjUxLjM2LjM2LDAsMCwwLS4xNS4xNSwxLjE5LDEuMTksMCwwLDAtLjI0LjM2LDEuMSwxLjEsMCwwLDAsMCwuOCwxLjE4LDEuMTgsMCwwLDAsLjYuNjMsMSwxLDAsMCwwLDEtLjA2QTEuMDgsMS4wOCwwLDAsMCw1LjA5LDE1LjgyWiIgc3R5bGU9ImZpbGw6ICMzMzk3RkE7ZmlsbC1ydWxlOiBldmVub2RkIi8+JiN4YTsgICAgPHBhdGggZD0iTTksMTUuMDlhLjMxLjMxLDAsMCwwLS4yLjIzLDEuNTIsMS41MiwwLDAsMC0uMjUuMjYuOS45LDAsMCwwLS4xNC40NywxLDEsMCwwLDAsLjQ5Ljg3LDEsMSwwLDAsMCwxLjA2LDAsMSwxLDAsMCwwLC4zMS0xLjQ0QTEsMSwwLDAsMCw5LDE1LjA5WiIgc3R5bGU9ImZpbGw6ICMzMzk3RkE7ZmlsbC1ydWxlOiBldmVub2RkIi8+JiN4YTsgICAgPHBhdGggZD0iTTIzLjg2LDIuNDlhLjMzLjMzLDAsMSwwLS42NSwwLDE4LDE4LDAsMCwxLS4xLDIuNzMsOS4yNSw5LjI1LDAsMCwxLS42NCwyLjU2LDUsNSwwLDAsMS0uODUsMS40MSwxNC42NiwxNC42NiwwLDAsMS0xLjk0LDEuODEsMTUuMiwxNS4yLDAsMCwxLTEuNDEsMS4xLDcsNywwLDAsMS0uODUuNDdBMTUuMTUsMTUuMTUsMCwwLDEsMTUuMTQsMTEsNy4xNSw3LjE1LDAsMCwxLDEzLjQsOC44M2E1LjQ5LDUuNDksMCwwLDEtLjQ5LTEuNTgsMjMuODMsMjMuODMsMCwwLDEtLjI1LTIuNjljMC0uNjQtLjExLTEuMjctLjE0LTEuOTEsMC0uMjIsMC0uNDQsMC0uNjZhNS44LDUuOCwwLDAsMCwxLjc2Ljc2LDQuMTEsNC4xMSwwLDAsMCwyLjEtLjEyLDIuNTYsMi41NiwwLDAsMCwuNTUtLjI3Yy4xOC0uMTIuMzQtLjI3LjUyLS4zOS4xMS4wNy4yNi4xMy4yOC4xNWE3LjIyLDcuMjIsMCwwLDAsLjc4LjQxLDcuNTgsNy41OCwwLDAsMCwuOC4yOCw0LjYyLDQuNjIsMCwwLDAsMi4yNy4xLDYuNyw2LjcsMCwwLDAsMi0uNzkuMzIuMzIsMCwwLDAsLjEzLS40NC4zMy4zMywwLDAsMC0uNDQtLjE0LDUuNCw1LjQsMCwwLDEtMS44NS41NSwzLjg2LDMuODYsMCwwLDEtMS44My0uMjNjLS4yNy0uMS0uNTQtLjIzLS44MS0uMzZzLS4zMy0uMTktLjQ5LS4zUzE4LC45MywxNy44OC44NWEuNi42LDAsMCwwLS41Ni0uMDdBMS45LDEuOSwwLDAsMCwxNywxYTUuMjMsNS4yMywwLDAsMS0uOTQuNjUsMy4xNywzLjE3LDAsMCwxLTIsLjE4LDcsNywwLDAsMS0yLS44OS4yOS4yOSwwLDAsMC0uNC4wOC4zLjMsMCwwLDAsLjA4LjRsLjI4LjE5YzAsLjM2LS4wNy43MS0uMDgsMS4wNywwLC42MywwLDEuMjctLjA2LDEuOTJhMTcsMTcsMCwwLDAsLjA3LDIuODQsNS40Nyw1LjQ3LDAsMCwwLC42MSwxLjkyLDcuMzcsNy4zNywwLDAsMCwxLjY0LDEuOTQsMTQuMTQsMTQuMTQsMCwwLDAsMy4xMSwyLC4zLjMsMCwwLDAsLjMsMCw2LjUxLDYuNTEsMCwwLDAsMS4xMi0uNDgsMTUuMjcsMTUuMjcsMCwwLDAsMS42LTFBMTIuMzgsMTIuMzgsMCwwLDAsMjIuNDQsMTBhNS40NSw1LjQ1LDAsMCwwLDEtMS43M0E5LjEsOS4xLDAsMCwwLDI0LDUuOTEsMTcuNjUsMTcuNjUsMCwwLDAsMjMuODYsMi40OVoiIHN0eWxlPSJmaWxsOiAjMDAwMDAwO2ZpbGwtcnVsZTogZXZlbm9kZCIvPiYjeGE7ICAgIDxwYXRoIGQ9Ik0xNC4zMyw3LjQxQTQuODIsNC44MiwwLDAsMCwxNiw5LjYyYy4xMi4xLjU2LjU1Ljg3Ljc3YTEuMSwxLjEsMCwwLDAsLjUzLjIyLDEuMzgsMS4zOCwwLDAsMCwuNjgtLjE1QTcuNTIsNy41MiwwLDAsMCwxOSw5LjlhNC44MSw0LjgxLDAsMCwwLDItMi4xOCw2LjU3LDYuNTcsMCwwLDAsLjM5LTIuMzNsLjE3LDBBLjMyLjMyLDAsMCwwLDIxLjc2LDVhLjMyLjMyLDAsMCwwLS4zNy0uMjcsNC41Miw0LjUyLDAsMCwxLTEuMjgtLjA2QTMsMywwLDAsMSwxOSw0LjE3bC0uNTktLjU2cy0uMjItLjI5LS4zMS0uMzlBLjU5LjU5LDAsMCwwLDE3LjUzLDNhMSwxLDAsMCwwLS40LjIzYy0uMTkuMTctLjM4LjUtLjU1LjYxYTIuODcsMi44NywwLDAsMS0xLC40Niw3LjI1LDcuMjUsMCwwLDEtMS4yNS4xNC4yNy4yNywwLDAsMC0uMjkuMjcuMjguMjgsMCwwLDAsLjIzLjI5QTUuMjgsNS4yOCwwLDAsMCwxNC4zMyw3LjQxWk0xNiw1LjFhMy44MSwzLjgxLDAsMCwwLDEuMTUtLjM1LDEuODgsMS44OCwwLDAsMCwuNDktLjM5bDAsLjA4YTIsMiwwLDAsMCwuMzcuMjgsNCw0LDAsMCwwLC40OC4zMkEzLjkxLDMuOTEsMCwwLDAsMjAsNS40OWMuMiwwLC40MSwwLC42MiwwYTUuNTcsNS41NywwLDAsMS0uNDgsMS44N0EzLjkxLDMuOTEsMCwwLDEsMTguNCw5bC0uNjEuMzhjLS40NS4yOS0xLjE3LS41OC0xLjE3LS41OGE0LDQsMCwwLDEtMS41MS0xLjY2LDQuNTUsNC41NSwwLDAsMS0uMjctMkE1Ljg4LDUuODgsMCwwLDAsMTYsNS4xWiIgc3R5bGU9ImZpbGw6ICMzMzk3RkE7ZmlsbC1ydWxlOiBldmVub2RkIi8+JiN4YTsgIDwvZz48L2c+PC9zdmc+;" vertex="1" parent="135"><mxGeometry x="10.620000000000005" y="8.220000000000027" width="30" height="28.09" as="geometry"/></mxCell><mxCell id="136" value="" style="group" vertex="1" connectable="0" parent="1"><mxGeometry x="620" y="333" width="145" height="45" as="geometry"/></mxCell><mxCell id="127" value="Continuous Quality Checks" style="rounded=0;whiteSpace=wrap;html=1;sketch=1;fontFamily=Architects Daughter;fontSource=https%3A%2F%2Ffonts.googleapis.com%2Fcss%3Ffamily%3DArchitects%2BDaughter;spacingLeft=52;align=left;" vertex="1" parent="136"><mxGeometry y="-0.7799999999999727" width="145" height="45" as="geometry"/></mxCell><mxCell id="132" value="" style="shape=image;verticalLabelPosition=bottom;labelBackgroundColor=#ffffff;verticalAlign=top;aspect=fixed;imageAspect=0;image=data:image/svg+xml,PHN2ZyB4bWxucz0iaHR0cDovL3d3dy53My5vcmcvMjAwMC9zdmciIHZpZXdCb3g9Ii0wLjIwNzE3MDY2NTI2NDEyOTY0IDAuMzI2NjY2NzEyNzYwOTI1MyAxMTIuMzA1NjMzNTQ0OTIxODggMTExLjM5NTU5MTczNTgzOTg0IiB3aWR0aD0iMTEyLjMwNTYzMzU0NDkyMTg4IiBoZWlnaHQ9IjExMS4zOTU1OTE3MzU4Mzk4NCI+JiN4YTsgICYjeGE7PGcgdHJhbnNmb3JtPSJtYXRyaXgoNC42NjY2NjY2NjY2NjY2NjcsMCwwLDQuNjY2NjY2NjY2NjY2NjY3LDAsMCkiPjxnPiYjeGE7ICAgIDxwYXRoIGQ9Ik0xMSwxMmMuMDcuMDYuMTMsMCwuMTYtLjA5UzEwLjk0LDExLjkzLDExLDEyWiIgc3R5bGU9ImZpbGw6IG5vbmUiLz4mI3hhOyAgICA8cGF0aCBkPSJNMTMuNyw0LjM5czAsLjA1LjA2LjA1LjA3LDAsLjA2LDBTMTMuNzQsNC4zNywxMy43LDQuMzlaIiBzdHlsZT0iZmlsbDogbm9uZSIvPiYjeGE7ICAgIDxwYXRoIGQ9Ik0yNCwxNi43MWMwLTEuODIsMC0zLjczLS4wOC01LjYzcy0uMTItMy44Mi0uMjEtNS42NGEzMi41LDMyLjUsMCwwLDAtLjE4LTMuODJBMS41LDEuNSwwLDAsMCwyMi43Ni41MSw2LjE0LDYuMTQsMCwwLDAsMjEsLjE3Yy0uODItLjA4LTEuNzgtLjEtMi41NS0uMUwzLjQxLjE4SDEuNzVzMCwwLDAsLjA4YS4zNC4zNCwwLDAsMC0uMDYuMjdBLjM1LjM1LDAsMCwwLDEuNzEuOHMwLC4wNywwLC4wN0gzLjQxbDE1LC4xYy43NSwwLDEuNjcsMCwyLjQ2LjEyYTUuMDksNS4wOSwwLDAsMSwxLjQ4LjI5Yy4wNiwwLC4wOS4wOS4xMi4xN2EyLjI3LDIuMjcsMCwwLDEsLjEzLjY3Yy4wOC44NiwwLDIuMDUsMCwzLjI2LjA3LDEuOC4xMSwzLjcuMTQsNS42MXMwLDMuOCwwLDUuNjFjMCwuNzUuMDksMi4zNSwwLDMuNzVhNCw0LDAsMCwxLS40OSwxLjk1Yy0uMTMsMC0uNDYuMDgtLjc3LjExLTEuODMuMTctNS43NS4yNy05LjY2LjI4UzQsMjIuNzQsMi4yMiwyMi41M2MtLjM5LS4wNS0uODYsMC0uOC0uMTVzLjA1LDAsLjA3LDBhMi4xOCwyLjE4LDAsMCwxLS4xMy0uNThBNzIuNTUsNzIuNTUsMCwwLDEsLjg0LDE0LDEyMS4zNiwxMjEuMzYsMCwwLDEsMSwuODcuMy4zLDAsMCwwLC43MS41Mi4yOS4yOSwwLDAsMCwuMzYuNzUsMTIyLjYzLDEyMi42MywwLDAsMCwwLDE0YTc1LDc1LDAsMCwwLC4zOSw4LDIuODIsMi44MiwwLDAsMCwuMzMsMS4wNywyLjEyLDIuMTIsMCwwLDAsMS4xMy40Miw3Mi43Myw3Mi43MywwLDAsMCw3LjgzLjQyYzQuNDUuMDgsOS40MiwwLDExLjcxLS4yMWE3LjY5LDcuNjksMCwwLDAsMS4yOC0uMTguODkuODksMCwwLDAsLjM1LS4yLDMuNzgsMy43OCwwLDAsMCwuODItMi4wOEEzMS41NiwzMS41NiwwLDAsMCwyNCwxNi43MVoiIHN0eWxlPSJmaWxsOiAjMzM5N0ZBIi8+JiN4YTsgICAgPHBhdGggZD0iTTIwLjY5LDE2YTEuMTUsMS4xNSwwLDAsMC0xLS4xNCwyLjY5LDIuNjksMCwwLDAtLjkxLjUxLDEyLjM1LDEyLjM1LDAsMCwwLTEsMSwzLjg1LDMuODUsMCwwLDEtLjM1LjM0LjUzLjUzLDAsMCwxLS4yNi4xMywxLDEsMCwwLDEtLjc1LS4xOCwzLjgsMy44LDAsMCwxLS42Ny0uOCwyLjM2LDIuMzYsMCwwLDAtMS0uNzYsMy44NSwzLjg1LDAsMCwwLTEuNzEtLjIyLDIuNzcsMi43NywwLDAsMC0xLjIxLjM2LDUuNzQsNS43NCwwLDAsMC0xLjMxLDEuMDcsMi41NCwyLjU0LDAsMCwxLS40Ni40Mi43NC43NCwwLDAsMS0uNDMuMDdBMS4zNiwxLjM2LDAsMCwxLDksMTcuNTljLS42Ny0uNDMtMS4wOC0xLjE4LTEuNzctMS41MmEyLjEsMi4xLDAsMCwwLTEuNy0uMTMsMy44NSwzLjg1LDAsMCwwLTEuNzMsMS41LDEuNSwxLjUsMCwwLDEtMS42Ny40OC4zLjMsMCwwLDAtLjM5LjE3LjMuMywwLDAsMCwuMTcuMzksMi4wNiwyLjA2LDAsMCwwLDEuMzIuMSwyLjIzLDIuMjMsMCwwLDAsMS4xNi0uNywzLjQxLDMuNDEsMCwwLDEsMS4xNS0xLDEuMjMsMS4yMywwLDAsMSwxLjI0LjA2Yy42NS4zNywxLDEuMTMsMS42MiwxLjU4YTIuMzgsMi4zOCwwLDAsMCwxLjE4LjQyLDIsMiwwLDAsMCwuODUtLjA5LDIuODUsMi44NSwwLDAsMCwuOTItLjY5LDUuNzcsNS43NywwLDAsMSwuODktLjc4LDEuODgsMS44OCwwLDAsMSwuOTEtLjM0LDMuMjIsMy4yMiwwLDAsMSwxLC4wNywxLjQxLDEuNDEsMCwwLDEsLjc2LjQ1LDMuNjEsMy42MSwwLDAsMCwxLjE4LDEuMTEsMS45NCwxLjk0LDAsMCwwLDEuMjEuMTQsMS4zNSwxLjM1LDAsMCwwLC42MS0uMjcsMy43NywzLjc3LDAsMCwwLC41My0uNTMsMTAsMTAsMCwwLDEsLjg0LTEsMS43OCwxLjc4LDAsMCwxLC42LS4zOS40Ny40NywwLDAsMSwuNTEuMTIsMTIuMzMsMTIuMzMsMCwwLDEsLjg3LDEuMTYuMzUuMzUsMCwwLDAsLjQ4LS41QzIxLjUzLDE3LjE3LDIxLjIyLDE2LjM0LDIwLjY5LDE2WiIgc3R5bGU9ImZpbGw6ICMwMDAwMDAiLz4mI3hhOyAgICA8cGF0aCBkPSJNMjIsOC4zNmMtLjQ0LS42NS0uODEtMS42LTEuMjktMi4xOGExLjQ5LDEuNDksMCwwLDAtMS4yMi0uNjMsMS4xNCwxLjE0LDAsMCwwLS44LjQ3LDUuODMsNS44MywwLDAsMC0uNzYsMS40MSwzOC42LDM4LjYsMCwwLDAtMS4zNiw0LjhjMCwuMDctLjE1LjMtLjI2LjU1LS4xMS0uMzktLjE2LS44MS0uMjMtMS4wOXMtLjE1LS43NC0uMjEtMS4xMWMtLjI1LTEuNTQtLjMzLTMuMTMtLjY3LTQuNjVBOS43Nyw5Ljc3LDAsMCwwLDE0Ljc3LDRhMS4wOSwxLjA5LDAsMCwwLS42NC0uNjQsMS4xLDEuMSwwLDAsMC0xLjI1LjQsNC45MSw0LjkxLDAsMCwwLS43NiwxLjc1cS0uMTIuNTItLjIxLDFjLS4yMiwxLjM0LS4yOCwyLjcxLS42MSw0YTEwLDEwLDAsMCwxLS4xMywxLjI5Yy0uMDUsMC0uMDcsMC0uMS0uMDlhMS40MiwxLjQyLDAsMCwxLS4yLS4yOCwzLjEzLDMuMTMsMCwwLDEtLjI1LS42M2MtLjE4LS42LS4zNy0xLjItLjU3LTEuNzlzLS40My0xLjE5LS42Ny0xLjc2QTUuNTQsNS41NCwwLDAsMCw4LjcyLDZhLjc4Ljc4LDAsMCwwLS42MS0uMjhBLjg2Ljg2LDAsMCwwLDcuNSw2YTkuMjIsOS4yMiwwLDAsMC0xLDEuNDljLS4yNy40NC0uNTQuODgtLjkzLDFhLjcxLjcxLDAsMCwxLS40NS0uMDUsNC4zNCw0LjM0LDAsMCwwLTEtLjUuNzQuNzQsMCwwLDAtLjU3LjA4Yy0uMjEuMTEtLjM3LjM4LS41OC40NmEuMjkuMjksMCwwLDEtLjI5LS4xQTMuMywzLjMsMCwwLDAsMi4zNyw4LC44Ny44NywwLDAsMCwyLDcuOTJhLjMxLjMxLDAsMCwwLDAsLjYxYy4xMiwwLC4yLjA5LjMuMTdhMS43NCwxLjc0LDAsMCwwLC4zNi4yNC43NS43NSwwLDAsMCwuNjEsMCwyLjM3LDIuMzcsMCwwLDAsLjYzLS40NS4xOS4xOSwwLDAsMSwuMTYsMGMuNDMuMTEuNjQuNDQsMSwuNTZhMS40MiwxLjQyLDAsMCwwLC42NywwLDEuNTksMS41OSwwLDAsMCwuODMtLjQ1QTEwLjI1LDEwLjI1LDAsMCwwLDcuOCw2Ljg4LDIuNDUsMi40NSwwLDAsMSw4LDYuNTlzMCwwLC4wNS0uMDZhMS41MywxLjUzLDAsMCwxLC4xNS4yN2MuMTEuMjQuMi41My4zMi44NS4yMS41Ni40MSwxLjE0LjU5LDEuNzNzLjM1LDEuMTcuNSwxLjc2YTMuNDksMy40OSwwLDAsMCwuNzYsMS40NiwxLjEsMS4xLDAsMCwwLDEsLjMyLjkyLjkyLDAsMCwwLC42MS0uNTgsOS4xMSw5LjExLDAsMCwwLC4zNy0xLjQ5Yy4wOS0uMzUuMTYtLjcuMjMtMSwuMjMtMS4zNC4zLTIuNzEuNjMtNGE1Ljc1LDUuNzUsMCwwLDEsLjQxLTEuMzVjLS4wNi4xNC4xOS40Mi4yMy42OEMxNCw1LjU1LDE0LDYsMTQsNi4xOWMuMzYsMS40OS40NiwzLjA1LjczLDQuNTcuMDguNC4xNi43OS4yNiwxLjE4YTguODQsOC44NCwwLDAsMCwuNDEsMS41MSwxLjY3LDEuNjcsMCwwLDAsLjU3LjcyQS42Ni42NiwwLDAsMCwxNywxNGE0LjU4LDQuNTgsMCwwLDAsLjQ4LTEuNThjLjE1LS42Ny41LTIuNTMsMS00LjA3YTYuOCw2LjgsMCwwLDEsLjcyLTEuNzFjLjExLS4xOS4yLS4zNC4zMy0uMzVhLjguOCwwLDAsMSwuNjIuMzVjLjQ4LjU1Ljg1LDEuNDcsMS4yOSwyLjFhLjM1LjM1LDAsMCwwLC40OC4wOEEuMzQuMzQsMCwwLDAsMjIsOC4zNlpNMTEsMTJjLS4wNiwwLC4wOS0uMDcuMTYtLjA5UzExLjA3LDEyLDExLDEyWm0yLjc2LTcuNTNzMCwwLS4wNi0uMDUuMDgsMCwuMTIuMDVTMTMuNzgsNC40NSwxMy43Niw0LjQ0WiIgc3R5bGU9ImZpbGw6ICMwMDAwMDAiLz4mI3hhOyAgPC9nPjwvZz48L3N2Zz4=;" vertex="1" parent="136"><mxGeometry x="12.75" y="8.620000000000005" width="28" height="27.75" as="geometry"/></mxCell><mxCell id="137" value="" style="group" vertex="1" connectable="0" parent="1"><mxGeometry x="304" y="333" width="145" height="45" as="geometry"/></mxCell><mxCell id="125" value="Data Contract Catalog" style="rounded=0;whiteSpace=wrap;html=1;sketch=1;fontFamily=Architects Daughter;fontSource=https%3A%2F%2Ffonts.googleapis.com%2Fcss%3Ffamily%3DArchitects%2BDaughter;spacingLeft=47;align=left;spacingRight=-1;" vertex="1" parent="137"><mxGeometry width="145" height="45" as="geometry"/></mxCell><mxCell id="134" value="" style="shape=image;verticalLabelPosition=bottom;labelBackgroundColor=default;verticalAlign=top;aspect=fixed;imageAspect=0;image=data:image/svg+xml,PHN2ZyB4bWxucz0iaHR0cDovL3d3dy53My5vcmcvMjAwMC9zdmciIHZpZXdCb3g9IjAgMCAyNCAyNCI+PGc+PHBhdGggZmlsbC1ydWxlPSJldmVub2RkIiBmaWxsPSIjMDIwMjAyIiBkPSJNMjEuMTQgNi45NGEuNzcuNzcgMCAwIDAtLjQ4LjJjLTEtLjgtMi4xNC0uMjUtMyAuNzJBMTYuMTIgMTYuMTIgMCAwIDAgMTYuMTUgMTBhLjI4LjI4IDAgMCAwIC40LjMyYy4wOCAwIDEuMzktMS4yMSAxLjQ3LTEuMjguNzMtLjY4IDEuMzUtMS40MiAxLjgxLTEuNDhzLjMyIDAgLjQxLjA5YTE5IDE5IDAgMCAwLTIuMDcgMi44MWMwIC4xMi0uMzEgMCAxLjUzIDEuNzFsLjI3LjI0QzE5IDEzLjU3IDE2IDE2LjczIDE1Ljc0IDE3YTIuNjYgMi42NiAwIDAgMS0xIC40MyAzLjcyIDMuNzIgMCAwIDEtLjIyLTEuNTJMMTcuNyAxMmEuMy4zIDAgMCAwLS40Ny0uMzdjLS43Mi44OC0zLjQ1IDMuMzktMy42OSAzLjkxYTQgNCAwIDAgMCAuMjggMi42MiAxIDEgMCAwIDAgLjkzLjMyIDQuMjYgNC4yNiAwIDAgMCAxLjc2LS42NWMuNi0uNjIgMy44Ni00Ljc5IDQuNjUtNS4zMWEyMCAyMCAwIDAgMCAxLjc3LTEuNjQgNC42NyA0LjY3IDAgMCAwIDEtMS4zN2MuNS0xLjU3LTEuODItMi42Ni0yLjc5LTIuNTdabTEuNjYgMi4zM2ExMi45IDEyLjkgMCAwIDEtMS41OCAxLjg4Yy0uOTEgMS0uNjUuNzQtMSAuNDYtMS41Mi0xLjI2LTEuMzMtMS0xLjI3LTEuMjFsMi0yLjE2Yy4zNC0uMzgtLjA2LS40NS43LS4xNS40NC4xNiAxLjQzLjYzIDEuMTUgMS4xOFoiLz48cGF0aCBmaWxsLXJ1bGU9ImV2ZW5vZGQiIGZpbGw9IiMwMjAyMDIiIGQ9Ik03LjIgMjIuNTNjLTEuNDgtLjI1LTEuNDgtMi4xMS0xLjYxLTMuNTNhNDAgNDAgMCAwIDEgLjE1LTYuNTdjLjE4LTIuNDYuNi0yLjI1LjU5LTUuNTEgMC0xLjczLS4zMy00LjA2LTEuNzktNWE0MC4yOSA0MC4yOSAwIDAgMSA2LjI0LjA4YzIuNjQuMTggNS43MS0uMTQgNi45MS42M0MxOS4yMyAzLjYzIDE4LjEyIDYgMTkgNmEuMzIuMzIgMCAwIDAgLjMxLS4zNmMtLjA2LTEuMzEuMjQtMi40NC0uODEtMy40NEE1LjgyIDUuODIgMCAwIDAgMTQuNzYgMWE3NS40NiA3NS40NiAwIDAgMC04LjU3IDBDNS43NyAxIDEuNiAxLjUgMSAyLjA4QTMuMTcgMy4xNyAwIDAgMCAwIDQuNSA0LjYxIDQuNjEgMCAwIDAgLjcyIDdhMS45MiAxLjkyIDAgMCAwIC45My42MmMxIC4zMSAzLjI0LjI1IDIuODYtLjU1QzQuNCA2LjggMy4xOSA3IDMuMTEgN2EyLjM1IDIuMzUgMCAwIDEtMS43Ny0uNTYgMy43NyAzLjc3IDAgMCAxLS40OC0yIDIuMzEgMi4zMSAwIDAgMSAuNzYtMS43MyAzLjU0IDMuNTQgMCAwIDEgMS4yNy0uMzFjMS4xMSAwIDEuNjQuNjYgMiAxLjczYTE0LjEzIDE0LjEzIDAgMCAxIC4zIDQuNDYgMzMgMzMgMCAwIDAtLjU1IDdjMCAxLjQzLjE5IDUgLjg0IDYuMjJhMi4xIDIuMSAwIDAgMCAxLjY3IDEuMjQuMy4zIDAgMCAwIC4wNS0uNTJaIi8+PHBhdGggZmlsbC1ydWxlPSJldmVub2RkIiBmaWxsPSIjMDIwMjAyIiBkPSJNMjEuODUgMTkuNTRhOCA4IDAgMCAxLTEuNzEtMy4xOS4yOS4yOSAwIDEgMC0uNTcuMTVjLjc1IDMuMzMgMi4xOCA0IDIuNzkgNC43OS0uMzQuMDgtMTMuMjYgMS4xLTE0IDFhLjMzLjMzIDAgMSAwLS4wOS42NmMxLjYxLjI2IDEwLjU5LS4yMiAxMy4xLS40OWEzIDMgMCAwIDAgMi0uNjVjLjYzLS42Ny0uNzEtMS40Ny0xLjUyLTIuMjdaIi8+PHBhdGggZmlsbC1ydWxlPSJldmVub2RkIiBmaWxsPSIjMGM2ZmZmIiBkPSJNOS42NyAxNi44NmMuMzkgMCAuNDYuODQuNSAxLjI2IDAgLjEzLS4wNy43OC4zNS45NWEuNTEuNTEgMCAwIDAgLjQ1IDBjMS42My0uODUuOTMtLjE4IDEuNDYtLjE4LjY4IDAgLjU2LTEuMzktMS4yNS0xIDAtMS4yNC0uMzQtMi4yOS0xLjU5LTIuMmEyLjc1IDIuNzUgMCAwIDAtMi4xOCAxLjgxIDMuOTIgMy45MiAwIDAgMC0uMzQgMS4wNWMuMTEgMS44NC44Ni0xLjY4IDIuNi0xLjY5WiIvPjxwYXRoIGZpbGwtcnVsZT0iZXZlbm9kZCIgZmlsbD0iIzBjNmZmZiIgZD0iTTguNTcgOC40MWM1LjI4LjE5IDIuMzIgMCA2LjA4IDBhLjM0LjM0IDAgMCAwIC4zNS0uMzUuNDcuNDcgMCAwIDAtLjM5LS4zN2MtLjI4LS4wNi0yLjEtLjMtMi45NC0uMzNhMTcuODQgMTcuODQgMCAwIDAtMy44NC40OC4zMS4zMSAwIDAgMCAuMi41M2MuMDkuMDIuNDguMDQuNTQuMDRaIi8+PHBhdGggZmlsbC1ydWxlPSJldmVub2RkIiBmaWxsPSIjMGM2ZmZmIiBkPSJNMTMuMjIgMTEuNjRjLTUuMi0uMTUtNS40OS4xMi01LjU3LjM0YS4zLjMgMCAwIDAgLjE3LjM4IDEuMjMgMS4yMyAwIDAgMCAuNDQuMWMuODQuMDYgNy4yOC4zOCA3LjI0LS40Mi0uMDMtLjU4LTEuMzctLjMzLTIuMjgtLjRaIi8+PC9nPjwvc3ZnPg==;" vertex="1" parent="137"><mxGeometry x="8" y="9" width="30" height="30" as="geometry"/></mxCell><mxCell id="138" value="" style="group" vertex="1" connectable="0" parent="1"><mxGeometry x="147" y="333" width="145" height="45" as="geometry"/></mxCell><mxCell id="124" value="Data Product Catalog" style="rounded=0;whiteSpace=wrap;html=1;sketch=1;fontFamily=Architects Daughter;fontSource=https%3A%2F%2Ffonts.googleapis.com%2Fcss%3Ffamily%3DArchitects%2BDaughter;spacingLeft=48;align=left;" vertex="1" parent="138"><mxGeometry width="145" height="45" as="geometry"/></mxCell><mxCell id="129" value="" style="shape=image;verticalLabelPosition=bottom;labelBackgroundColor=#ffffff;verticalAlign=top;aspect=fixed;imageAspect=0;image=data:image/svg+xml,PHN2ZyB4bWxucz0iaHR0cDovL3d3dy53My5vcmcvMjAwMC9zdmciIHZpZXdCb3g9IjguODM1NzM1MzIxMDQ0OTIyIC0wLjA5NDU4OTc5MjE5MTk4MjI3IDIzMi40MTQ1MDUwMDQ4ODI4IDI0OS41OTY5MjM4MjgxMjUiIHdpZHRoPSIyMzIuNDE0NTA1MDA0ODgyOCIgaGVpZ2h0PSIyNDkuNTk2OTIzODI4MTI1Ij4mI3hhOyAgJiN4YTs8ZyB0cmFuc2Zvcm09Im1hdHJpeCgxMC40MTY2NjY2NjY2NjY2NjYsMCwwLDEwLjQxNjY2NjY2NjY2NjY2NiwwLDApIj48Zz4mI3hhOyAgICA8cGF0aCBkPSJNMjAuMjcsMTUuMjRjMC0uMjgtLjA2LS40Ny0uMDgtLjU2YS41My41MywwLDAsMC0uMTYtLjI5LDcuMTksNy4xOSwwLDAsMC0zLjMyLS42N2MtMi42LS4xMS02LC4wNy03LjMyLjE1LS4xOC0uODgtLjU3LTIuNjQtLjgyLTMuNDVBMi40MiwyLjQyLDAsMCwwLDguMzksMTBhLjUzLjUzLDAsMCwwLS4yNy0uMjYsNi4xNyw2LjE3LDAsMCwwLTIuMDctLjEyYy0xLjM5LjA4LTMuMTkuMzMtNC4zLjQ2YS4zMi4zMiwwLDAsMCwwLC42NGMxLjI4LDAsMy41LS4wNiw0Ljg5LS4wNWguODZhLjUuNSwwLDAsMCwwLC4xM0M4LDExLjgxLDksMTQuNTQsOSwxNC41NGEuMjkuMjksMCwwLDAsLjM1LjE5LjI3LjI3LDAsMCwwLC4xOC0uMjJjMS4zMywwLDQuNjUtLjE2LDcuMTcsMGE4LjI0LDguMjQsMCwwLDEsMi42NS40MmMwLC4xLjA2LjIzLjA3LjM3YTQzLjM3LDQzLjM3LDAsMCwxLC4wOCw1LDEwLjMyLDEwLjMyLDAsMCwxLS4xNywxLjZjMCwuMDksMCwuMjItLjA2LjNhMS4xMiwxLjEyLDAsMCwxLS4zNy4xYy0uNTEuMDgtMS4zMi4xNi0yLjMuMjItMy40My4yNi05LC40NS0xMS43NC40N0gzLjUzYTQ0LjM2LDQ0LjM2LDAsMCwxLTEtNC41NkMyLDE1LjY1LDEuNTksMTIuNTcsMS40MSwxMWEuMjkuMjksMCwwLDAtLjMxLS4yNS4yOC4yOCwwLDAsMC0uMjUuMzFjLjE0LDEuNi40OSw0LjcuOTEsNy41M2E0NCw0NCwwLDAsMCwxLDUsLjUyLjUyLDAsMCwwLC40My4zNGwuNjUsMGMxLjA5LDAsMy40LjA1LDUuOTIsMCwzLjM5LS4wNyw3LjE0LS4yOCw4Ljg5LS41MWEzLjA4LDMuMDgsMCwwLDAsMS4yLS4zMywxLjM0LDEuMzQsMCwwLDAsLjQxLS42OSw2LjEzLDYuMTMsMCwwLDAsLjE2LTEuMDZBNTguNTUsNTguNTUsMCwwLDAsMjAuMjcsMTUuMjRaIiBzdHlsZT0iZmlsbDogIzAwMDAwMDtmaWxsLXJ1bGU6IGV2ZW5vZGQiLz4mI3hhOyAgICA8cGF0aCBkPSJNMjIuMzksMTBhLjI5LjI5LDAsMCwwLS4zOS4xLjI3LjI3LDAsMCwwLC4xMS4zOGMuNDIuMjcuMzcsMSwuMjYsMS43MmEyMS4yNCwyMS4yNCwwLDAsMS0uODYsMy4wOWMtLjIuODItLjY5LDIuMTktLjcxLDIuMjctLjI3Ljg2LS4yLDEuNTcuMTYsMS41Ny42MSwwLC43Ny0xLDEuMTUtMi4wOS4xNy0uNS4zMS0xLC40NC0xLjQ5YTE3LjI2LDE3LjI2LDAsMCwwLC42LTMuODVBMS44NiwxLjg2LDAsMCwwLDIyLjM5LDEwWiIgc3R5bGU9ImZpbGw6ICMzMzk3RkE7ZmlsbC1ydWxlOiBldmVub2RkIi8+JiN4YTsgICAgPHBhdGggZD0iTTE4Ljg4LDEuNzJjLjQyLjEsMSwuMSwxLjU1LjIyYTEuNTUsMS41NSwwLDAsMSwuNzQuMzUsMS40NiwxLjQ2LDAsMCwxLC4yNS45MkE3LjU1LDcuNTUsMCwwLDEsMjEuMjgsNWEyMy44LDIzLjgsMCwwLDEtLjY5LDIuODZjLS4yNywxLS41MywxLjk1LS43NSwyLjk0YTE2LjI3LDE2LjI3LDAsMCwwLS4zOSwyLjYxLjMyLjMyLDAsMSwwLC42My4wNiwxMywxMywwLDAsMSwuMzQtMS42NWMuMzQtMS4zMi44NS0yLjYsMS4yNi0zLjkxYTIwLjE5LDIwLjE5LDAsMCwwLC42NS0yLjc0LDcuOTMsNy45MywwLDAsMCwwLTIsMi4zMSwyLjMxLDAsMCwwLS42Mi0xLjQxLDIsMiwwLDAsMC0uODgtLjRjLS42Mi0uMTMtMS4zNi0uMDctMS44Ny0uMTNhLjI3LjI3LDAsMCwwLS4zMi4yM0EuMjcuMjcsMCwwLDAsMTguODgsMS43MloiIHN0eWxlPSJmaWxsOiAjMDAwMDAwO2ZpbGwtcnVsZTogZXZlbm9kZCIvPiYjeGE7ICAgIDxwYXRoIGQ9Ik01LjksOC40NWEuMjcuMjcsMCwwLDAsLjMtLjI2LDE1LjkyLDE1LjkyLDAsMCwxLC42Ny0zQTMzLjkyLDMzLjkyLDAsMCwxLDguMSwxLjc1Yy4xMi0uMjkuMzgtLjUyLjM1LS42MmEyMC42OCwyMC42OCwwLDAsMSwzLjY4LS4wNmMxLjIyLDAsMi40Ni4wOSwzLjMzLjE5bC0uMzYuOTJjLS4xLjMyLS4yLjY1LS4yOCwxcy0uMTUuNjgtLjIxLDFhNS4yMSw1LjIxLDAsMCwwLS4wOC42LjYxLjYxLDAsMCwwLC4xOS40Mi44Mi44MiwwLDAsMCwuNDYuMiwzLjkyLDMuOTIsMCwwLDAsLjg2LDAsMTQsMTQsMCwwLDEsMi4wNiwwYy4zLDAsLjU5LDAsLjg0LjA2YTEyLjg1LDEyLjg1LDAsMCwwLTEuMzIsMy4xNywxNC4yMSwxNC4yMSwwLDAsMC0uMzksNC4zMi4zMy4zMywwLDAsMCwuMzMuMzEuMzIuMzIsMCwwLDAsLjMxLS4zMywxMy4yMSwxMy4yMSwwLDAsMSwuNTEtNC4wOUExNiwxNiwwLDAsMSwyMCw1LjQzYTEsMSwwLDAsMCwuMDctLjc2LDIwLjE4LDIwLjE4LDAsMCwwLTItMi43MkE5LjI5LDkuMjksMCwwLDAsMTYuNDEuMzNhLjQ4LjQ4LDAsMCwwLS4xNywwQTM0Ljg1LDM0Ljg1LDAsMCwwLDExLjM0LDAsMTIsMTIsMCwwLDAsNy45Mi4zNiwxLjA5LDEuMDksMCwwLDAsNy41NS44YTIwLjg3LDIwLjg3LDAsMCwwLS45NCwyLjcyLDIzLjIxLDIzLjIxLDAsMCwwLTEsNC42NEEuMjcuMjcsMCwwLDAsNS45LDguNDVabTExLjM3LTUuOEMxOC4zMiwzLjg0LDE4LjgzLDQuNDIsMTksNC43NGMtLjM2LS4wOC0uNzgtLjE2LTEuMi0uMjJBMTYuMzcsMTYuMzcsMCwwLDAsMTYsNC4zM2ExLjQsMS40LDAsMCwwLS4zNiwwLC4yMy4yMywwLDAsMCwwLS4wOWwuMjEtMS44OWMwLS4yNC4wOC0uNDkuMTMtLjczbC4wNi0uMjFBMTMuNDcsMTMuNDcsMCwwLDEsMTcuMjcsMi42NVoiIHN0eWxlPSJmaWxsOiAjMDAwMDAwO2ZpbGwtcnVsZTogZXZlbm9kZCIvPiYjeGE7ICAgIDxwYXRoIGQ9Ik0xMy44OCwxMC43MWMtLjI2LS4wNi0uNTMtLjEzLS44LS4xN2E3LDcsMCwwLDAtLjgtLjA4Yy0uNjQsMC0xLjI3LDAtMS44OC4wNmEuMy4zLDAsMCwwLS4zMS4yNi4yOC4yOCwwLDAsMCwuMjYuM2MuNjguMTQsMS4zNi4zMiwyLjA2LjQ0LjQxLjA4LjgyLjEzLDEuMjMuMThhMTcuMjgsMTcuMjgsMCwwLDEsMS44Mi4yOS4zMS4zMSwwLDAsMCwuNDEtLjIuMzEuMzEsMCwwLDAtLjE5LS40QTExLjM1LDExLjM1LDAsMCwwLDEzLjg4LDEwLjcxWiIgc3R5bGU9ImZpbGw6ICMzMzk3RkE7ZmlsbC1ydWxlOiBldmVub2RkIi8+JiN4YTsgICAgPHBhdGggZD0iTTEwLjI1LDUuNzdsMSwwYTEwLjM3LDEwLjM3LDAsMCwxLDEuNDcsMCwuMzIuMzIsMCwwLDAsLjM5LS4yMy4zLjMsMCwwLDAtLjIyLS4zOCw2Ljg4LDYuODgsMCwwLDAtMS41MS0uNDUsMywzLDAsMCwwLS42Ny0uMDcsNC44NSw0Ljg1LDAsMCwwLS42NiwwYy0uNTEuMDYtMSwuMTgtMS41LjI4YS4zLjMsMCwwLDAtLjI3LjMuMjguMjgsMCwwLDAsLjMuMjZDOS4xMyw1LjYyLDkuNjgsNS43MywxMC4yNSw1Ljc3WiIgc3R5bGU9ImZpbGw6ICMzMzk3RkE7ZmlsbC1ydWxlOiBldmVub2RkIi8+JiN4YTsgICAgPHBhdGggZD0iTTE2LjI1LDkuMzVhLjMuMywwLDAsMC0uMTQtLjQyLDExLjQzLDExLjQzLDAsMCwwLTIuNzQtMS4xMiwxMC41OCwxMC41OCwwLDAsMC0xLjI0LS4yOGMtLjQxLS4wNy0uODItLjEyLTEuMjQtLjE1LTEtLjA3LTIsMC0yLjg5LDBhLjMuMywwLDAsMC0uMzEuMjdBLjI4LjI4LDAsMCwwLDgsNy45YzEuMDguMTcsMi4yMi40LDMuMzcuNi43NC4xMSwxLjQ5LjIxLDIuMjEuMzZhMTMsMTMsMCwwLDEsMi4zLjY0QS4zMS4zMSwwLDAsMCwxNi4yNSw5LjM1WiIgc3R5bGU9ImZpbGw6ICMzMzk3RkE7ZmlsbC1ydWxlOiBldmVub2RkIi8+JiN4YTsgIDwvZz48L2c+PC9zdmc+;" vertex="1" parent="138"><mxGeometry x="13.25" y="9" width="28" height="30.17" as="geometry"/></mxCell><mxCell id="140" value="" style="shape=image;verticalLabelPosition=bottom;labelBackgroundColor=default;verticalAlign=top;aspect=fixed;imageAspect=0;image=data:image/png,iVBORw0KGgoAAAANSUhEUgAAAPAAAADwCAYAAAA+VemSAAAAAXNSR0IArs4c6QAAAERlWElmTU0AKgAAAAgAAYdpAAQAAAABAAAAGgAAAAAAA6ABAAMAAAABAAEAAKACAAQAAAABAAAA8KADAAQAAAABAAAA8AAAAADV6CrLAAA1a0lEQVR4Ae1d7XXbuBKVkrx33o9ko1dBtBVEW0GYCqKtwEoFViqwUkGUCixXYKUCyxVYriByBSvv5seefUn07lVAhaJJYECCJChB5+iIBAaDmQEuZvBBqtMJn2CBYIFggWCBYIFggfot0K2/ylCjawv85z//6X/9+vUF+X7//j2K+Xe73d010zabzQA/PV5rPmuUW8b5KLPgNdMePXp097///W+XF9OE3+YsEADcnO3FNccABZj6/AJMWyAKASmuR0qI+hcENgC9wMBxLS0X6NxbIADYvU0Lc/zXv/41gAd9QWAmQBoVZlhTwRjQjx8//hQ8dE1GV9UEANdr721tPXy+fPnykuEuOj+9Kj0qv4fwWRHQUGT+7Nmz6zU+h6CUrzoEAFfcMgx/4ZVeKq8aKbD2Kq7WG/YA8xzCEMyfApjdN0sAsGObPnny5JXyrAOANQL7owGryZQKzLNv3759MtGGfJkFAoBldsqkUt71FTom564RiAaZhCExbQGudM+xCPYxzJnTprG7DwC2sBcXmeA9CNg4FO5bFK+K9BbyrNPMkbbEoPIgPU2XdY+yHIh6cR4iiVfxdQW/S9Q3DSF2McsGABvshpXVN+hgEcAwBGnfQO40G/VekyF+t2DELxeI+F034blUxBFBpKGaHjynfI4+wSsXMGQAcIbRMI+lhz3Bl6DdeaIMUhdJdwDkEnXREy3h5Zd///33ygXjqnmoiCSC3AS0My8Nfgt832OPeVG1Dm3nHwCsWpDe5Z9//nmD2zG+fZXs9Aed8hpfetMV5n/LQ+qg3Br766+/OOARzLSji882vMa05cIFs8DjAC1Ab4sw+RyA2jj+rsB3hu+Qg8MBmi5XJYIZeo/w5UKVC7t+Bq+T3ApDxvFZgB0CnevGUQdjJ40BOzo2wOp6D8EM24zxXTqwdQCyztjHkKeA+9lBZ1qDFz1sAKyw43DOjIhnCtuvS9o/AFlo84MhcwRcepExO+LBGKYBReIQG7bkWkCZEPuGU6AGVAhV1mUBAHeITlLG467oNQJoq2kxtQYxLwNktPFlmLZU0z6NcVUd46pgx9iGx2F0r6/5CEAAcVawvejF/8D3jN69PqlDTc4toMKz84IdgQtRI+dCBYZiCzgAMufH3M4Kn7ZZAA13okZijsjiL8otQqP71dociNGGE5t2TNKiPS/Jwy+tgjSZFlCj9lWyASXXBG4IkzNN6k1iSY/MsPrUG2WCIA8tABCO0EhsKBuPOwuLUg9t6XMK24sDrk07x7Qod8WBwGf9jk42hkdomMu4kYS/y+Bx291V2H5oa27niQfsBG1Y5PKh+VUj2njdNRpx7IPsQQY3FkB7cn7MdrUFcjgE4qYJinFBg53aNBq89CwsZhSzte+l1Px4btMfYlqG1WEaVWMLFwiZQ7hcY/s0WZWKyFYxOG1+AeTzMMBX3Ho0MBrlxqJhJhWLFNh7ZgH2EQB5atFHkqE3p2NhtbqKNrUE7yqERVW0Qnt4lvHGAPFnlm+Ptp5LSjDCqKLFKoRCc4Ldc5WCeDVYgP2ghDfecH4ctp1KNpQNeAHysMJc0t6HWLykN2aIHbadinQMC/CGkLmIgY+oDL0xgMgtp+Sc1+Y6nK226S8W4F2ycWx4B9rjtYDqV8uiQA5htaDvBPAKjBRISllAeeN1QSBzPeaslACHWjiA91Bb1j+91AGQRUEQM/y+YX/1T7OGJKJBYRTJanMImxtqo0OsFmHxCP2uqDfeLnIdol2sdOI8liMavqaFhQBeK8sGYokF0O/OBH1P1zdvjnbLKYBX0sUCTRUWsOh7OvDGeYwej+8kF0KYS8HoFzxvFT34iHkK11u49WQVXqM/H8+5aiobwHvEKGpIdTXvjT1n5i9oZhSv4GLX4YfUAC5Ht0zjJdLXRzu3aKhzH3q1RZ0G+uQYXxtv/MfBnqmGEYcJkOaBeB2W6Q8dTvXpZzHfzXUaaqdkKei7uz5Nb1+1lrX+OyGNgH8AvIFS2hNU+Ae/t/hHulnVygf+PyzQG296X7udl7x71OkMvm+y26fb7aw2nc6KdF8+/PjvYl77/KEjQF+6gozaPof8ewAuMv3vMgA8Aa34MEfVfbk2AHMU/PPPP2lI0wb4O/z95hR04ePIAjFA0di9zWZr/14Hv7jvA5D9otWg/Apll91HncV3/PoGanpA/NXpuUQ/G6CpQWEOvi9c85bwS9KgDer5wJjnMOZIVxuMeIHRUkujK38MeQDj4Fu38yIJxKTeaNABQGnyNskirq+XBPamC2Dj+3jTuV1PuyvXlZj4wVOegWZiolP57+E0pLTbInRI+D/kOfr0K0kdNgOEhF9MUwuAJSMhFLwGeKNYsPALFI43/e/dzpvN904EUPZhE1P04qvZMHfszB5tOtcA87JqISXOIpahrNOwCalR1+/o4/Tczj6VA1g4B7n/5Zdf+mt8nGnWUkYMdwHak+/fOyOo0FbA5lqf3hkT7clfH7oXuUQFMyymaXENt/C8pW2MAWMITzwD0+cx45xf/ufWa9M8O6dsZnKlAFYG5aJVP7N2lVjFyKSrz9e8p+PNWXfTGcPb9nyV0ZVcroGsHMUl5OsLZbyD0xi4chrcNsJgcCWoe4l6X7uqt1IAY7S5xMg01CmFEOTj169fxzqaY8j7ZbwZY/X3wzHomtJx+aTb+b3MPFmBh+CVDnyiFeeUnMZb9HfRohkc1hyh9O9GhgIC7BpU86FRTeBFzbcBvD/sj1Vc7UBXTSt5wXXwbdO5+eXd5rSINASN8nxS8HbgNIYuw9hYboByBnC+je/zfokL4GOal2+TXgmAGTrDqOcGQe7//e9/H2unNZjmuLI5ZcCcf/rsdHPJNQCp9lKPl+RHgMFpLJJpLq+lIAY+TiF/6f5fSQjN0YUC6gwT5r371sH8N8Le7MM5VLdzi0ZaopOv9kvs7tjhB7s7hpGbH4cyEmmtuYSuq8fdzmtTSI3Ofw5PNrJUzHq7yJL/jhzyzSDfyS4h+2KN+fCvZebDzgGs5iMPO2JCAYA37Pcm7BFfEsRokBHuCcr5405nYerIcVmbX25PfdUv9kQJfvF1bQMD9o8v/pp2RwkZ9i6LgLeJPodQfQnBX+4Jn7qBXKXmw04BLFx1DltGqUZs2y3DXAwA9PoccHiaa+Da63/5CBinPuxfODzxwdbzNgFeiq6ODhPEz1Oq7N1CvsL7ww+MtMfZ8ubQQme1NfEKBuY+HztsL2GSNdKXSF/AI3yqYlEkUVcrLgHsAYC9tRGBDaGjouBOA1g5B0Z2bAebzy3C1KhMmGpTWZpWEpGiTOFQ2hmAJYKiw7fitBV1ATDP8I3SDZJ3D90WyPvo+qRNXn1tSqfH/oZVdoB5LPLUmPd/mXZ3QG0reOM2kpzWQv8pNK10BmAIeQOBd0aPhU/8ctV58Pfff68SaV5dqhDtHMAdFhUMDTGH537ns55FdXNRjvNvgHmCs9wnefwedTvv/px2p8wvAV5v+pvSYQl1XuTpzHRg6LXtCrkTACOEHKHTn+uEQ15tK4AGOTKzC5zkyeSjEp0fmdNV1sY8FW5P4ZFf7cnf7byH950wTbUJ+5XOMZA0/ankoEa6Ept7YYS6QAT32oZvaQCr0YXet6+p2MmZUw3/Ulmqo1yBSa8Uo/3CAcT79si8I5BxiIVz5XVy1b1Mm8Ch/ObjmgTk4tNLbzINoRKLeGEdP2Me43t8d28hyLrm6GNk1BABByDILHkntVbHLL3Jlx2xIdVaWy1tVrRNGA36qrjqa+ucvrLtX5CfjqSej6TzQ6BZPdIUq4UG0xlU5S3ZMTgQ4XdInQRl6m+QYibwqtShgjc2MvqNPw5P0pF9fjEdwWgCImgWHKjiBoh/bd6RBB6juFz4zbfAoYOXmnvjhVUH1oaVBHh+czWfA/B+NgFYNwCpxliaeLCe5rX1W4Iy4IV9J35rty8d5TX1mcqnnQCnMfTUdf59leq/g/xG7wsjr0ySSUZUNlbwwvmWLANe351EltaSPkN8ZZV1kqYMrvW+HGWcVFYREza8aRQEzUJSPehGAl5zCa9jozk28MbtS3yY+kxlXljQ+dccZWJhffyF8YzhM/QUgU6NqKYB7Q8f7dCkTMpuhXYA2AcpO095PXu3OeHbTPCr3aJpUtd03Up304r0LF0ufW+9D8ywGO92Ns3pvD60QSNw9EsbI31vc/QT/FYo/yLNI3mPTufl/mRSxrqu2YGFrxl+IFJ87JB7yHgZwBUaMuks+IYPPo64flDQswR4WONjtzi9+KvuVJ/1A/3YIJ8Y7MCnjaYGmkazqwhN0KlWJqXwjHTfRHMM+Y7A28sAL83HByombbAjAWyS04Q3KwDT8KaTJBBo2tSTHyZj2OZD15e2ZXT04DfQ5R9DXhnwwj63z549G9NO6uGIXqbNNp3T7QsSMjP9SaRnZTShk4h4o83yaKwAjJCHxstlxkrg8mf8PZBPT7qS7hrsB2K/PTXKgjf5WCDC5v4e89QN3u5p9XqeVPHabgHgmaEyPgM9zKMRA1iNAqd5jJjO0UQXr+vK1pkHOdfS+vB0SN9Ei7ktDawd2Ew8jiEfHfESeg4K6Gr9TC/nxQixzwvUVWsR9fTRraHSk7x8MYDVKKDtpILRJE+OWtNtDrpj3hrphOPABu/7QUcT58E+q/j62H4xyJ3DTlEBvTPB+wSvHDLxAoiHbQilocdMpwvtlhcJigEMJme6StA5r22fZdTxqzqP8grrOOVeZRYt09VKaj8rP52GleplOu0Y7hV4RwV0zQQv+WCVmf+9pJ0/buvbyP9JsIB8Topg2mkcjICtcVZlIgCrDtzPYpBImyWuvb/EgGQ0mlKih2c0r9AJd2EMR0N2SqTfgGYgVPbexvMLeXpPBjvxWfFRAUFzwRvzesw3fODtHfF9zm/0bFyo/hx27pPVYtYnHWdEgm+y8kUARuFM9CcY3qEzzxL33l9KRr2EEgyTdye3uA9u2ynh8aUDRqLadl8q8J4X0MIIXvLkXi9C6SE88b22jhZ4Ychv6h/9rEhQBGB01kz0J4w2S1y34lKyhO9YEVMDOa6uWXbsbOg31uDFQPcpudps0oKv3d0Y/tUC+X3fvTC2x4z9I8tpGAHMURRG7OkM2datI7WnqB+9dYoL8zjfRoRibCAhO+/JCF5OO2wFhZ34Yreh7TkCvIJngVD6o7Y+z70wdebgpdMhK4w2AhgMhzqmyLttw9ZRlg6qo0yz8lymoWEmLvn5zIur8gDhJWTUDvppHRR4R+l06T1C6QlC6bs8enph31ek4WEXefKr9H56NVoLYBIfYvicNFLV0QNWnvnvi6aGSYrU2muC12ZVPla0LHjJR519Hsc8s367P/71IivLizTJugzWX/YcKnTK/6Dz0SAf8ik6HcxX/msb8uj4lc3j0ylfu52XTzade241SPhBzwnoziS0NjTomAydI5sybabFdMv4d7Jp/VyAN8kTc905Xlmbu2aDBx3+q8CeLObNNfriCsK8yBMo3ae0HhhMTvIYMR3MPvkEXjTeEKdvPne+dxZf8ZeV+Le7c538cR7mFgi/9GdSY1rpL22DOfbeaCkt20Y6HsxHtGalL6MTDHAjl/pia2mi44c3YDqtT1dXkTzYZK4rBxu/SubnAljF2oMkcca1trIM+sqS4Hn7eMfw+SYx98L1SDrv4YIWRzcXAqqOOfRpcHOhVx4PLnRiEDzNy89Kh635N5/jrLwyaduoq9vJbUcAeFiGf9VlBfPgTvJpulwAp2PtLMElS99Z5apIg8fdA2+ijihxnXtJsDHcJfhyicwZtyjPt+s775jmqpuhUNtF2mlWSrJ7gJd/5jVLpbu8neQyS79IPpewmQxgamGqGYNlFNPkAhhG1o5UyPcmfP5lvCFgdkrFyvEXk/xl8t50TfARhNAvdxTP4MGtqHcw7OBYFqxoA7XifMVL3gs+239MAHjnAtrCJGpbKbf9ONUqzLzigipqu9VVg745iPMzAcyGScfacYHEb6WNkKhHe8nQGYsWZ1lE3FbA/8xay0kQKm/8WnnkLIPewZCf8H0L4OIf5r9Ps2Q41DT2EbXi3BPqeItV1kFdx0kxcM/y5MLUKsrL8yEdfWqpkyOJTWyfPfzgyaPoYep+CkIndvL9xAbuGDqj2rxONCkjkvKmiyQPdlw1SiaTj+4afYRh80CouOhopJCXiAyLWfOvnZzHCT0PowFQAvhEo2iPUxcOhpkeGAWHmsLMuvPh8IZaoIqyZFXed5aVVyYtgHf7PrEJOtlIYkd4kwtOLeq2G7eK0Ac+5cgoHXhyilebjKiPANZ+YNM+CTIBnHTRWVxQwTwrvfa0jXaPelK7PEdQoVoBPZOoyukHorSRhLYiGj/6qaVyknUUYHQ7CD0IodU51r6uThRe6PLryOPhdMx9t0qk68PIe4+57yydfkj33OZDCPUKHo4PDeTYobvESM1Xly7QKXIXdaR2YZ3YnbiU0HNtAHXOJLRV0TCM/tbd/hfxi2Qd6B8XyXtPr+8h1/M82djuzHsAYC7e5BWK07nUjZAovq39l6etcGAjd+tio1nAqF1YhxVycAUgTwHYCEDqkzWuc2sgHTNRhq/R5cGbOW7naL9COwgKvD3y1Hy4TTRGP5ppaGrJYhiNvjLEybzd/xATvAD2uBYBSlQCGy7Rfq80LLbt8ADAKDjUdQrkX9c9n0krwdM06La5HQlKTdNl2nrPRTMsGL1BmxAUgzJ6gMcQ5YdYPe7g8MUMbXkhCddYJ09aYSAw1e/dH2tvD3Z4vupcpE1jcD+YA8cZeUyRv8jLqysdTuc0ty6cwkGjrXLzW5QBkJ0AbDew+Qxim8BjpRl48vQU3zSy97aRLCbCk1a3oIvq2ibKkvOQ0qQ42wNw8ohWnjE4n8rLqyN9O/fFo2F5den2//LK+JbOdiCwFHBzdXUhN+qIWA/a9TPqPEnzZNiO/NzpiqLfbhMF8KatV+09+8kegDEiR6YqpSGXiU/h/JxDGzE/LlzE1237ZbgMEJ3TMxJYNcvfJ5A5cMQDOeVB2H4OOXp5siAMt3qDRh6fkL5vAdh1tZ+Sfbc3B0YhjsbZlD9Ss04k6eid5vEIHMTr5zHlvh8XLvLyfU6np0O4TLA4DZVtdebAwS+APMfcm7bMlYdzaAB81OSCpq1+baEngA1Y7CC/vwdgJLzSKcjwGd5BR1J13tBQwdyQ72U2wDJSnq6MfFz9XcYM0JY9XL+M721/Ud5k6/eQeWLLN9C7s8AegBk2mcCJArsO4k4MGSduHeHY5ImOGuHzQpfvYx7BC7vS81p9ANZrlJtjUF3qpjUMg798+cLtpwgVEJSFQR0LiLrfAryz+D78urcAbLyWcN15YDTwwFQAYV5j55+5daSTD+HzXdtWnwG+CUB4ptMrlcfN/SlfAxQfZTUNumrLb4Fy/E7UohRXoEe4f46v1Qcdi48Czq0KBWJrC2zPOWPvXvdBWwx2FLzRESPvPu40BrpKsr8bvC8qXVRScUVM6XnBWgpeAvc9Xl/UB/AmZdqBHQMee8wng9DmRU4kvYEs4eOHBXo7AMMTaEMrNPayKZn5yCDqNg0wi6bks63XMmze7q8SuC4P0HAQgCcdQZbfIP+dVAf0E5YZSekDXbUW2AEY1WgBgoZbVCtKPneEz8P83B85j1vigYX7qrG6le+v0iPDs9Mbf4orNf2iL3xQr1wykYb8ii2wBXC876erCw280uVXmbcxHIXD/JdvoGxMPqnukn3VBK/anqGlZ4c3HlqE1D0A/0NC1nDZgAUYNW8BjPBM630pW1MA5uoz9n618y4AfNmA/ayrxGrwBIWMtgZNbeBNKsGQWgpidJ6hZOBP8g/Xzi2wmwP3TKyfPn3aCEjwzo/IJBvyG5FNINeORG3Tne4S8i/uscA0dDnfza/qYY4CsSicBoili3APKwopTiyw9cAYdSMDt/umOpQpfKbcUGJlkL/xbEQ5opATW0vDMqvMLhTF44Yj8Lk18QKAo+CFTVaqNn8LYDTEC101AHiTHm6gk415WORqUj6TeB21amvUA+D14m9YOFhDlrFRMRCg74joJLwCjb0FtgBGsb6h6MqQX1224AVkOI2yrk6A8pyFoeY9pimT8rW54cDTXZL5MHR7E1ak3di8CJdH3NYwFUQjrUw0VeRjAcsoG+vFCvSyivpd8FTety/gNW1qmpInG/rGJC8vmS75E4Akfbh2Z4EnAGfPHTu3nBAaR2451s8N9hUtXPGgRv3S6WvkXBwD0AV0ONFRwlMPkT/V0bjMo9PBYtv2fWDg28/hvYLcS0wFePLsOoem9clP0HEikxYwQiNPIQHA5sGla15sMelXVb7qaAMB/9o6v0CWPRK0/RRg0QIYQHm1V6iiG/UivzOulLMK1GusCf2b7wPDK2a7c7TH+6YXCI0CWxLEc2DLYrWRR4Ka1gKaRkjQwUaSivlwgoSuCRqe1EK9d6a6q16NRiQwRKjO1wuNTLJk5OMswWaE8nzryGUb5uxSGR9hZDJ6CNA0A5KN/dMyGY3XWBJGf+0BFCXYre9eAR5sbjKiJJIz8cjL5zoCAHiJ/F4ejTQdfLYDAQcEaZkm6BD29wX13tMDG42iRmEBP+ckA+cca2KoRtC+oLq5gKZREnT6hUkAgNzYj0w8svIVeM+z8kqk0SNfkncJHo0XhWNdPoIiLxuX5AAFkK7MouMvfFcfc8elSUb0I+eDLdcQwPeDqe6i+eB9XnXoX1Q2aTk+0F/JyCkVII9u+79H5jWKvOKNp3Nqgg5ilINHVLF9ZKRrkoAhPgaa2kVAWE7wSvon5+gzfGnInrJ9hOvn+Go/qOMSD5n86tsWnnRKsnsjh1bLkFnEAn1BocaOqApkS5PcIyEXEBisXqQLlLlXZ8cjAY/36OyTNJ1asZ5CrjfpvNQ9/yZ1jLRJKr0Vt5Jh1bgC2QpN/RTys59iPZSK862HqXsp/b27kjcAHkGl/UAm/vPhJIuIUQO2m4bIe5+Vn0o75aOeqbRGbxlFmASAjRZGAIPRysSoivyuLHTCZmC+V6hCLilPGDfXWyV4GBspQXs0lwSTwHN2MEeemIxCgKMPm56u4t/XEOw+fUQDihHATWmE2aO0c0vp6lbFV7kK2cE0IAEk14UYZxQCmKKM5HSSePsNQB+nC2fcDzPSGkuCvV8KKl97C2CB8F6TSDs0V1q9VuSncLXJic5rrMsmMmQ4bfLCqPPVT1W9uOqZpMDC4vIgAMy3dpiU9TUfHcd72YWngtZ12hh2W9rUJ6Bn5O5FW9gM6gcB4K/ycNumzeuiHdZVUdF6cJBnYCorAIiJhVU+PKpRJiuGIOYL8G3LVEGPeXtfwpdbkAcBYImyDdCsJHWisXwL3R6IDXB60bGTgkGmF8n7Q7qW2pt7194CGKvQK2mjgLYvpa2LDo2wEtY1EIaoQnbuyeDtIvdcS3O0sptEB7RZv7RUDhhIogvQbBcNvQXwxgLAoPXC8Mm2szkiiRA1Spb16ZrzQnRsY5SADrWqW24cVx1J64QOklVdKbtK6SCrJLpYUwgjgIXMKlWojcxt3uIJG5/5qiNOKY0ksrkEsMXgdyZZ8FFPHvVMerjUwVSXId84ZUGfWZKHEcCg6ZPQ80/km3zqbO2tUK4+Ou1ESFs32YmkQr5DS0InobEZ/HDa6koA4lNJvT7QSB+uiAcbCYAb0QuHtFfSirub8n+ZKa3Lhs7Ck5Ctd8f51Nzc6A0g+52NXUy0loNfDyC+ga3PsraB1OOIkalO5gMUawldlTRY1JTYm28Z2XrgLi42JoHAtGuiqSL/6angcR5V8ZNu5794uV3jDZC0Az0DO1cyTXeNDjQD/VsdTZ156PwzhGpGDwy5LyD3yKVsCnjntjwhywIyL1gO1xGuI14LPvfo5z0BXaUkUpvHmKQHNo6eghClEqX4n0dSxj7uBUtfRxPriM7mzT//0ftKwKtkX8Q6uPrFy+Xn4CVu/7heBdgJ7icW4CXYFzGPJn8hs2SxbTc14yt1ViaBwbSRkQmhwdIkW5yPkWgQX3v2O7WRB7Y+b2rATMqJwedD8l53rcCmI7HOU2G0le2sK0kUAA5qqytR7d6lmgIY+zFkXcYFvZ0DU0DE7etYUNMv3mDZN9E0kY+/7pyhXitPgnD0Kms+V5f8COOGGEiGkvrQmS4U2CTkVjQIEycosPM2VoUtiKHDtctFOIuq90ilJ8HQNj8BnETzHrfEDQwZJW5ru7TxwBBqUJtgFhUV9CR8yLwREKvQ2WbuObcwhzUp58LWhSwLAAMTyyKVkEtxFi9gUYhHKLSuRBoHTOGBdyONkZ3gL1iMPCoigBeegrWVFwb9oAkQI3QmeHtCU9whWpgLaQuRcR0BAHtbqLCgEMDgxf9RUVToORCI3Elus4lCaCljSeU2NI8ttpLId/seLZsKaqJVXnhSoLpaQQxvd47wLJLKWZfnwiAxqwLE4MnQeSzVt2o62F6ygHWXnLJwEWspEKwnoHFOYvufRx4vZHUQ6UzZYQoYiSD+LN3gL8B/W0SBd2RRnt53ZkFfijQBYttIJrNetgUW34aZmQ0kqj33vqlqyL1K0hDA62RC1rVwZMgqWj6t2xF3esyZo/IVVscB4doY3It0wB4GgCuA+IPrxS3yA3gv0cYjG82hixW9De88WoIY/2IxQH6phS2GzeAVJT1ZXp11pUtfQ4x2WiRlEgEYBdjOvWTBGq8X4ro8ngdTBzWfI4gLfQDiMbzxDQB3UohBqhD4DOnd0SmGqSztLQb9i6ZWbfl2DdhhABk4L77TCprKRJlrgPe1T2FzLCJki+Jr3S/kXyTzu7xBIpyX/qMUX+ip3Oeq90NfSTnjRNZvtqG3lLcrOnjSKTrhaUl+K5SnR7pgp7bhxXAcoMU5NzvgqjrusCg38MV7qanFEPaMIF/WHPKWnR4AmXEAtbFTnbSQ8Q/UZ3SS0HOL2Vi2GMBULEv5mI6/71B4mkyo69rmSOWjbufdn9PmN+VNtoH3mwNAb0x0wny235wdFSuUt2lwcX4Fr/NCdfIRaPv4FvpA7t98BQKjxHgvFcBe2Q5shQzioJD0yC0jCIb+ySq3L3ZHxgqdSQtgdI4+OkCybG3XOFL5CaeiRZ0doQQVbGSgsTEIFlBGCF8XKKO1u5DnAHQDtg94MqJiMYK6h28f8yvel/6gn7z1FbxUTg1cC15jwOJPKz5pUOYJDYwu0nnblkYGG1v7AQ07SVOfubRiAr0NL7ljZ0MoGkGvUgsyGruwvfqafKssgpeLSFaFArHIArBtJCFkhJWm2wIYDCQAfpUuXNc99oMfCK6r+1unM9Tl+5JXA4idqIqOw1XbmRNmgckDC8A5iqLLrIXDLYDRQKsHXDMSmjpkj0WpVadr5alaAWCamCBG6MtV1YsMkzeeRM/r46pt44ZxJIBahDNyQztcZxFtASyd17CjZTGpI61rMa9VYXS/Drlc1QEPNyJYXPFzwOce8vwePK8DS+pZiJxN1vyXbLcAVvzv9PXIz2qa+BTJRxg9tymH5TaRYWx4Vk1LsHCVF/VUNS8WqcDRngcmII+VzUXMA9GeBeAUReFz1vyXjHYARqMt9zhn3KCyxubBfNsGVqMvMsTKTPq+6ZxkZnieyGhIRTrvIOp9zeKyvncAbtSWLZia7eO0OjUl7UuYZs1/WW4H4DwXnWI+4F5bKq3OWxuPMMBqdL9O4VzWBRBPsUpN+d/jWzmQuVDF+livSz0Cr3wLAHOj/NyfOXCun37e7V/tAIzQbbGflX0n/Oe47MIlU/+adufwwsZQP64GO4Gj+LqNv2qBa5IAslh3ob4cGN6D/3+5UMX6hOUCmQMLYLAUhc+oKtdx7QAsXcjCaBA5kL0Mi4m0MN5W2cowOq1fDGQ0eB/2/x1fTiWKgpmLUxfkA349fCcBuGmLV39vEz7rXlnUTYpKLwy3bprn8jD5r8lydV8/G2/WWGl+LqkXHvt3em4Jbdto1BG8CGAcQPZ+RtvdIW+FL+fVK7avdKBuiy14aAeng09wCG2IrcYljha+53qJ7/JjyjKBjGcCOW/RdmzfzM/2KGWco+bBJgD3eba2yUWOzY8tJYnyVG2E70ECWIFxSSUlH3QECVlraAjer5vOVWejXqe06UQ4xDNC+q8tALE0fJ7pGmQXQpMob6k6zUD67GK6nKt7jDpTeFbRwk4b94Rd2enQ+WCNYwId97wTBveeSvdWffXw/p7cecJiO0/rfPYAnLdUnWaOkCxKp9V5z9FVeWFRtRiVJyLCQNQaC6jHTE9zBBaBI6ds5ckWJ9vuTJHuHoApOcB5bdIAofabhreTOpZe+KTNW0qm9ji2fIbOWKA81+i91OQ1noWpjCh8RkSs9b5UJAvAIuWxnTRs0hLBCzdp/Wbr/gbwIgLra6QwdnxN2UqzsJBI3PQllcCZzkx0WQA2FlJMGwUwZVBe+E7Jo/3BXDh4Ya2F2pGJHYgRwJvf9/AOtS9TP/4mJcei+bLvF7iT7Bg8ALAqZASFD2G0Wmkc7+udf4eR+0N+bsjx3QIInQdYcda2YdfioZe69eW0E7g5EdY7k9A9ADALSWJv0jUdRm9l4B6v8M2VHLl9fXc0dQmffAtw3osB+BJt2Muj4ik9n/f88baUUZ7s6XSsPs/SaVn3mQCWxN6KmXQ0yarbWRpCabEXxgh+5qziwKg2C3C/F+DtGyqcGPKbzhbhhQvJptXnWJFMAKsw2rjPinAgUntaMb9GfhFKL+GFPworj34Zb+SAFzINZNVZ4Nnp5hzcB7oalPed6WiazFNHJ7U6JOQT65EJYDLCKDBPMMy9xKGOUW5mjRlYuBgDxLeSKrGgdRa2lSSWap6G4IXnHQkkmQhoGiPB1pHUadzrzj6nFcgFMAhFAAZd3mZ6uq7K7xFKjySVoEPwCB5H9fDx2AJYr5iIwIs1EMx9Z76qohavRHu/dJw2D5fkAli9jcEYRsNo/GuOkQ/GU6H0e6EsIZQWGqoJMm4XSdcrrNZAGlBGLfb2JFVbrD9t2WHVPf8DYM6Ey96NP6GU1AIj9wKN/yqZlnUN5dePu53XW+BnEYS0Riyw3esVRkiY+17A+44aEVRYKXZ1bkA6EJDfIdTuC+h2JLkemBSoeLqj1F/0pW/X07Nxk4sReSh52AHh2TaU5haFm5oDl7IWwOD7AWsU5xI+bOPHNjsQEqaOaWweXEDVM9vqtQDmajSXtCVM4anPJHR10PCABxo2EtY1CAc8hJaqkIyD6Ha1eWOxJQjwsq0rFKs0a4sHFzrSvd+kUFoAK8JZskDeNbeUfPLCDIsxQr/NkzeZDk882s65konhujYLELxqn3ckrRRt+8nnhatYD4TEJ/G17peOUrr3m+RjBDBfdYoCd8lCedc+eWHKyAZGQ1/kyZtMZ9gWTmklLVLPNcDLCEg6R9wKhTa9Q4Q1qkfC4rWoBxek07NZkZqMAFZMRcx988KUnQscUhDjEbVLdiilc/ip2AIcMAHeK0RAfZuqGDH5HjorfaRbrFZ7v0lbiQCMtxZOUUiypdTxzQtTWQXiT0nFs67RMbbnbRnSZeWHNHcWUNtEBK+drbud954/bbQ1Ehev6NAkFrPd+03yFAFYbSwTxMaPj16YQm9DLsFJLXoDzscCiI1NXZhge7pKuNK8V8mPRwUne2me3tgsXtnu/SZV7iZvdNc8TYKnKVagea6jU3l8C+JvArpaSQhKvC+Je8QvBRUvn/zYI14LaAOJwAJb+/MldLI90X2OGHyxPRi1JHTmFuwfUEASXVjv/SYNI/LALGDjhUE+gALjZEU+XLPx2QmEZ6YHwRO7azU13/3MvmHLFWsY920CrzqZKAEvTTG1tUeSXgxgFrKZC4P8jF47WZkP1zGIhQtbMYitO50PuvoiA8B7hqjHfr4LBQhe7um3xfPS5jbrQMDUjGWKfsQhdFwBPOsE12fxve4Xsf0FtqFGOpom87CQgqOi5n9vgJHCkcsCDYWQmesJ5ygaFSi+LQIAt+rF/Nw6AoAvJfq6wIc1gC3nwpwLvJa+rlaitGsaPhuMfzL8YOIbQGyy0H4+BschvO75RjYP3C+s7gDet204rJEUHv2d04R+Mi3v2gU2rAFMYWy8MMi9XNBKGnXb2XAOFd74eTI9fa1A/BvCuVU6L9z/sAAXqrC3S+AOy9ikjeDl3BfelxGH5KP9yxQJA9JYzYFjplhhnuD6Lr43/HJBi/TefjDKzznPQqfR6kRv0sY/Dq/L8Gqh6uYYwUsb28x9ET6XWryK27QQgFkYAoxjJoLfM/VKEQFpMyTwqkuAeAAQX+gkAIB7uvxjzKPXBXg/qIWqflEbwPb458T2hc3UVzkpqe6FT16lbYuosPgHIcMCo84rIQfvQ+lYD11Ijb1h/nHWKqY99l96Xf5LArxuv4wtCF612rwsw6eJsjx1hVdL3aBu6eD+XkWxpcUt7IFZM7zqyEKCAZ5WmlrQN0aqQuoB9ouvk0LQOwTw/rCIK6+75YZDGox+GAUl7d2Wazx2ew5ZpeC9V9uxTtQr5YEpgeWClver0mmroqMOcHqrh4MES3SwdTr/GO9deV3aDoPiJ4C3LQ8nPGhu9P8xEo27GImCzrwveZYGsNpW4sj5IiGk7nKNEehXmxd36ZiFvPosQOBinnuGGiMXtT7qdt79OXWzmONCHlseBUJnet++y75fGsBUmg/yI6a/sjBAa+bDFjqVImVnwH75C6wp9PnFIiHfhrKGbY1/MVmqYkFhRCF9bA2dbVw9g/vjXDO9Lgf+Vn6U42KfH1go4NT7sl4nACYjzm8B4lNeSz4IPT7aPLEh4dk2Gq7MA6wnsNsQsvc18i9hrwVs/LHIWxs0fLVZKlQ+cQZc1vbjccCJtuIWZGIB9xJtx3aTfu7gfQcuvS8rdgbgAqE0t6Leqjd+SI1wEHQELkCLl7fJnhdNKg2bzVD+fVVA5uLUt27nTed7ZwLg9pN1l7rGgiDWEfgOq9Z63Vh/W2fFchiAKzmR6AzAFBKK2YbSa4xkr9VfuZDFwX9gow8A77ikomsA+Z2rwS8B2ghyDQHcXkn5dsWxSHWHmzFX9neJLb6wPG211RRtVdkzAU4BTGkx0kzwc8Zr4WeNt/H9VpVHEcpQORkjFLzgm1535LCyCQaD90X4cV77HZ72+/ftkceoCA9dGe7rYiCY4u0ZEx1dm/KKgBf6OV+4StrMOYDJHIraHPBgkSXmB69dzw/I2JcPbHIlDZkxYl+Dtg/ZXwjkt14Ysfi/IUH1KRIsUKFTTdv2EEJKiwe3nPYg4rlChlV0grb8HeUqiz4qAbCaD6+grPbhgJSVDnZlWjpn4sLe06dPJ/FApqYkbHytHdFJxGsJOGU22vx4xC9l/nK38LgX8LizNryvylbTEuCtLHSOdagEwGReYD7MRa0ZRqu3sXCH8AvPK3o+lODNWpVXnWcBW+hALJ6GYGV5ovZyS5uXhzDQgRY4zjfH4tSqNEMPGZQA7zX6clS1SpUBmIIXmA8fHIhhg88wRZ/20Hy0j5ZJBkMMfqLRvowH5rwWOjAi4NNbi0M/mVYUvLDPLaaEURxJadq9dFalAKZ08EAzzOdObCQ9FE8M3RGump8PBciNWwzgZVxXwGLgr5LFQHjhJbzwS12bAKx3yF8iLF7id4EtoNWhetksO5QA7z3aKqprZ6VyAKv58AJG0naYtBEPAcQA5g30GqR1S93fYSW5n0p7cCsZDFBfZhj+gBkStp74Z2SwiGmODaix3snfEuCtbL83KV/t1wQxOtcK343NF532vHZhHVWodDbqS2BKqhTy+yzhFWjyLUDwoo/+YdNPY1ppW+bX7nGOMsw6Vlb621YQszElOhKY0maT8KOdpfwC3b4F0GZD2LhV4C31PPC++vo7zglgnKGe6mEu5pAjGPbKpqM/5FJ/itrHNVV853qhA/WKBwSTcMeUzwEXtruEztb2Q7/+iBXnWRP2qg3AVI5vp8Tc9q2tojBshH+FaB2ITXrCFisTTZwvHcAwnw4eODaa8Ber/DwhV2i6hja8yNr+E1ZdmqxWAFNajlRFQIyiA4D4pi0hInSMqK/ug07zXJefzMMxTGn0Yu1BkvUc0zUHRXjey6Jn0wle9OfRMdlspytDFsmcLoPmD5SVduZdfXVfQMZFhuwPFrUknpU04PVZwo97xnXr2sb61JrMjcSmWTRo31kb9XYqcwkQEwhnToVxzIwNnNXwGWkTU9XgdZlR7sFgQBq+GMDE79jzYc/Ci1W0Mdv22G240x8GmUg7Z5qOHVviwXaV1XhhqVfm/0jRm4KPyPMq26xqVLGVVcFOZ8pWmQOgKS+AN6PZYbSxyXCa/M8+zovR0CONzHmd5zPKXfFboOwGgJ9mmDckwQKMTGDTwiGzao9JMGaOBQp2+CQQTnNYN5KsOkxSvsqvQ/ic3dToW6VCZoKX/TObe0jdWaAsiFH+yqdODHkWRTxpkTKoa74zZLjYWoDTK9hFvH6QY3e+NWYUTCq0gFodXOcYU+LFvFmlVnNYicxlada+rgUIm905GUBX2uuiD659nJ45N5Zrhg5AzJDHiwUuyFG5Fw4e4mcPZATGti/hAOLBdOlTNPdTw5Zc0aOgEZYlG4Le+KRJldkJOJKX1CPuVA9+w8LVz9aFjc/w/aOsrdFn5iGi+WnXUlcw5sxBgzQ6N1YRxQPwOdBrVsq4B1K4wHabri0mB2IWf9QAiEdlO7sqn7nfWoemLqYFCRvQo4/rkNvnOlS4fJWwiw6YpjwuVnl/ws/n9tDKpgCwctBY3GttJKxWHW5RRgfIvqAttMY68EyGt7DDeRk7psqG+W4dfUY13DxlfNPImpd/w9CrDrnTdbBedEAbPegdZk3Jm5a/qXu2P9r+DN/S89xEH5o0pY+Leit/pY4LIdM8YHyGjxN8xU/zpHnE93iiZA6P9k7yLqm4jKtfdkg8ZRThqaSdR4U8fXzXeEJmzXoI9Lrer+RKryr4wA4nsNMUvHuO+N+jHw35iKsjfoGNjQVUSL1MjKR5nlaUjg5yHrYNbFqgHloCF2382VU7kw8HRQ6e9WgQatFaAGHl1HHjXh57qKo1eA2ZBFcVwEU/CQtVNbSfdRWuvbEapa8CkK2bolQBAhe2P8PX5Rx3G4EFr1uqaeopjIafEHyOv9tVa3auerQ4vlrU6vy543aL+8EqDMQt6lMutmpyOtIf6Agfjn0Lx2VXYJiM71WOvWMAFv1dg+/EpbyBV40WQMfg4Q82YtEOoCt3A76nwSvbNygHWA6EsJ/zMDlua7T9LLSNfdt4V4KNiEatIqzegRud5RLfN94p75FABC0HPHw58O1s5/oa7bAI4bJHDe9KFBVWz113mDQ/BeaTMPpjsxYf2KPKEDk5EBztPLeVBzmKApujMw4DTPB9VZSHtBwOYyxQzxyd+PpYDmJwoPznn38YjYzwHUhtVYLuDnaeNPVS9RJyOyt6VACOrVYnkFWdawXoBf5B8FMTp75i3V3+0sviJNkr6Bbh5NgQvPsu+Wt4HT1wY9scJYBj5RsAclx1DOglwvDF06dPb13/xUpckctfAvbLly8vAdYIfAnYOrxsUoUA3KQ1cH3UAI5t0SCQYxH4u4InWyLsXvIX3zXO6V4nCeq+hl1eQZ4+6o3Pa9cN2FjlANzYEqnfAOCEQbjHy7/ZQKdt5HHDhCjJSwJ7hYQV5OIvt8aW+O2U8dyxNyUf6Exg9lBPxHvUs/3ldZMfyHON7yQ8cJDfCgHAGbZRizEjZI3xLf3EU0YVVSVtPXeauS+ATMuVc38P0PIJscmhrBXk6OkkOQDYYEasIo9AMgIIKl+5Nohy6Nm3AO702bNn8zasB/jSGAHAwpZIeOURirwQFgtkegtsvS2mBNNj2WrTm8M+NwDY3mYdtehFrzxE8TaF2AW0dV8EnvYTuM6wfzt3z/24OAYAl2xvghkshmofNHjmHHsq0M5DiJxjoILJAcAFDZdVjKvY8MojtU/6MovmiNK24TH0JWgXYV5bTcsHAFdj1+1ZYL7vCuyHahX4GLzzLQ+mQOd52PqBFWr4BADXYGRWwUUwLNRECCXppfk9hFXtOwB2Dl0WwcvW1JFS1QQApwxS5y3nzzxEQVCj3r7voIac1wQrfpcBsHX2lPy6AoDzbdNIDj01ws8+gQ3vRlAT3J0awX0HgK5Q5Qp1rhgS434dtnnYCv59AoD9axOtRGqhrAdwEdz9mBhAY9oW7HFa+hf5i2QagarAymOZy7DQlLROuA4WCBYIFggWCBYIFggWyLPA/wG+xRSQmS1XnwAAAABJRU5ErkJggg==;container=0;" vertex="1" parent="1"><mxGeometry x="191" y="52" width="57" height="57" as="geometry"/></mxCell><mxCell id="148" value="" style="shape=image;verticalLabelPosition=bottom;labelBackgroundColor=default;verticalAlign=top;aspect=fixed;imageAspect=0;image=data:image/png,iVBORw0KGgoAAAANSUhEUgAAAPAAAADwCAYAAAA+VemSAAAAAXNSR0IArs4c6QAAAERlWElmTU0AKgAAAAgAAYdpAAQAAAABAAAAGgAAAAAAA6ABAAMAAAABAAEAAKACAAQAAAABAAAA8KADAAQAAAABAAAA8AAAAADV6CrLAAAqNElEQVR4Ae1d3XXbuNalnNy75iE/mgqiqSCaCqK8fW9RKohSgeUKIldg5fF7slyBlQosV2C5AssVRE7ykDWTRHdvmlQomiAA/oLU0VqySfwebGDjHByAlOfJRxAQBAQBQUAQEAQEAUFAEBAEBAFBQBAQBAQBQUAQcByBjuPyOSded7zp/uh4L5MEe7zxrtfTzjopTsIEgTIQEALHUH1ytHkFUHqbjdfrbLz+xvO6/j3CYklTb5Fnhbwr/F9vOt6y07m/F5KnwiaRlghgfO3vh2Q98EDSXz5R+0CC3yo+SwC/7Bx4y4ONdwmtvayiUqmjfQjsDYFJVm/jDahV0Y3UrD1XuhOdsIIsC+/AWzzaeJ/EDHelZ9yXo7UExlq1/8Pz3pC06AZ+G/NBp8xB5rmQuTFdVpugrSLw06PNG++XNwSaQ65da0O1wIrRQTOsoc++TTuLAouVolqCQOMJ/GS8oVn8DoQdtaRPEpuBjlpBK0++nnTOEhNI4F4i0EgCwzzuwTx+B+KOXFrLVjGC0GH0ak8fe95HWStXgbjbdTSKwFzX/tx4h23XtiZDRohsglL70zSCwFzbYqtnjO4YtL9L7FqIDhTT2g6yVqV2msBc38KL/AGID1xHHQc17iDjGgdAXtQk69LreEfi7KoJ/ZqqdZLALhAXhLyFqb5CvyzxXQOoJe7X7CdbkgRbWtsTXSjLP+GFyekVyyv0c78+Ppb1caGoOluYUwSmcwpr3BMQZVgpYh3vEvUtD0DYX/gPB9GyKgL4bb63MAaQYVCEBkenruDoem870VSKuVRWCALOEPjZ0eYQ69wJyNstpGWqQjreNaIWaPji0T1RV6qkdYTHCD0EoZ9nlkO0cWbompKxdgL75uXGOwVg/TJAC9amc5Q9B2EXVWnWotrydLyhNTICkd9kLHP5uOO9RbtXGfNLNocRqJXAWOt+wDpwUjQ+UdJ+nXZI3sZ/MNF1Yd6P+AVmiY8zqhqJTl7DwfW+LVio2rmP4bUQuCytC+J+QifOMVBnbe5M38nneVNbIoPEE6yLj9uMzb61rXICwySkBqGjqlsE2NS2KGsGx9N038xEH0sPfgOLrSt0+Ozrx877IrCXMupHoDIC0wQMPMyjIpoN4nKbJyTuuogym1pGBiIvgnXxXuPW1P6Oyl0JgUHe3o+Nd46K+9HKs1wHGncKU3CSJX9b83CCxPnwCaybQ8M20rn1umlOPcO27U2y0gnM9S4070VekzkkbmAqi+ZQDNHAaz0z3H4SEitwbEpwqQSmaYeBdJoXDJD3E7aAxvu2xs2Km79c4XPEZltPQuKsQDuQrzQCF0HeYJ07khNF2UbKs/Fm/AsOQ4PcQmIDkFxMgtODxX+eHm5Oc2vejvcRWrcv5M3eP1+mnSm2jl5z+aEphcscE6JripHoqhEoXAP75OVhg4wf0boZgUvJ5vshcApNty7GYJAtphQcXYwqVAMXQF6udUXrFjxS4DtYAteBThPD0Tii2V1w9VJciQgUpoHzkvcAz7L6Jl+Jjd33oqGJ+SqiufYEF8xuWbo0Y7QUQmAc7eP+44csTaZWwMw/lAGTBT37PIGHepVmTmNQrB91vL9kj9ge36pz5Dah/VNAGckLB8u1mMzVdjlJqTOnMaF2g4M31QontVkjkIvAPFSf2dsM8uJQxkD2dq37LHcGrolRiG6tO/An59y1SQFlIpDZhPY9mxlPWMFsprNqJCZamV2rLxsTMJ9oUh69FFNaj2HdKTJpYH8dhbPNNLVsGwDynuFxv6GQ1xa54tPD7zDmZKoq2Tel9ZpalV3CK0AgE4Gx6X+Kzu3ZyheQd2SbT9KXhwAtIfTLraoGvDz/kBO2Kl7C60XAmsD0OIO8Q1uxhby2iFWTnpYQ+nOkqk20sAoZN8Kt1sB0WmHNdGEtOhxWMNf61vkkQ2UIpK2HZS1cWTdYV2SsgWlGwZw6ta4h8DZb55MMlSKAHYEJrKTEM9PUwj8zWF2VNmBPKzMmcJZ1LwcEBoY4rBowuAKn4lglKrYLld5qVR4JLx8BIxMa+4F8P/G5rTh448PfGBhL23ySvj4E0Nc8pfUiSQLpzyRU6g3TamDfA5nBdIb2fS/krbdzM9Y+UeXDK20HqjgJrwcBLYGx9plyDWQjXuBxntnkkbRuIMBX8qrWwng5wDs3pBQpQgRSCUyvM8wpu067P9+sXEuFFct/dxHAhD1TSNeHRdZTxElwDQikEhhbRtZvaYDTSo5I1tCRRVaJPpyqyoNF1lfFSXj1CCgJHDzYbddZHY8/a7msvhnNq7GLz+PHj1/x65r06MMVnxRLkgvaeZAULmH1IJBIYDquYDp/sBLp/rDGxCrPniZ+9OjR6MuXLze/fv1a8Iv7CxLaMTgWifKU8ZvGiRVJoAkCiQTGWxvGmGmtBhRNZ5MK9z0NybvZbE6BwxZf3A9A6AvHsJkr5OE6eCu7Io0EV4TAAwKzc3iA3ap+vEFSTGc9Yv/5z3/6AXmTEvdhTg+SIuoIS3tDCib4fh0ySZ0PEXhAYFvtG5y2mjwsWkKiCJC8P3/+dE3LRkV8eN3xLh8G+iEDRbgEV4zAAwJba9/7X0xYVyx3o6r7448/egF500zPuydPniwda9giSR4c3xMNnARMDWE7BPaPTEbWZjp5oH1v2/5bvDoMdPF0Tv3zzz88hppGXhYzWeOjK6/i+EVifZY/MJ5YhgQWgsAOgVHi0LLUiWX6vUpO8gbOqVSN1el0LuGNnroGDhyTyySZ4ODsiSMrCZnqw3YJbPZjWPdSYttItG96h339+pXe5lTyIv7u6dOnw/SS6omFY3JNKyupdnFkJaFSfdiWwNbmM3+LVj5KBLBdhN+H2miJCe07ctB0jrYrUQtjHdyNJpLrehDYEhhm0cBUBHqeoX3npun3LR22g6Yg70jXbpD3E5xbTuOIcZFIYIT3de2T+PIR2BIY3uc3FtU5Pegs2lF4Uh7UwHrWZB+dpvOocAEKLhCaNpHACO8VXJUUlwEBn8BwSPQwo9p0iBA4AezIKauE2N2gBpjOvsCPPG+1K/n9neV4SSpCwgpAwCcwnjAZmJYl5nMyUppTVjuZmmA6hwIrT9htvOdhGvlfHwKhCT2wEGFhkXYvklqesmqE6RztOE7a0fvgWtbACaBUHeQTGE8evTStGGufhWnafUhneMpqCwW079hxr/NW1vBC5cgK4+V/fQiEGth4NkWGRX3iulWzxSkrX3CQ9xJe55lbrdBLg0l7rU8lKepA4MB/WbtFzco1kUUZbUhqesoq0tY7mNqjyH1jLlUa2HbsNKbBDRL0ABrVWPviLQ2XDWpbqaIanrKKyjD5/v37Khog14JAXgQO8KrQrkUhC4u0rU1qesoqBICms4tnnUP5dP9hQi/jaejYUp2VjqeV+/IQ4Bp4YFo8Eu/9Wsj0lFUEU2fPOkdkTL3kqTsQ9iyWaMyz0rEwua0YgQO8edJ4Pw/a+sFMXLG8tVZnccpqKye0r+tnnbeypl2AxCP+MgOWUa/x/095kCUNreriYAWZr4GReFWdaG7VZHPKKpQc5HX+rHMoq8l/cWCaoFRtGprQxh904Mo4cYsS2pyyijS7cQc2IrLLZUMQMCYw1kC3DWlToWJanrLa1t0W03nbILlwEgFjAmMvcOVkC0oUyvaUVSjKwcHBR9cfEwxllf/NRsCYwM1upr30tqesIjVc4+V0k8i9XAoCpSEgBE6ANsMpq20pdHY17azzVni5aBwCQuCELstwyios5ejff//d6622EAj5Xw0CQuAYzranrMLscFqdNfm0VdgO+d8sBBpHYJq3/EU/fouGOsMpq1CEa7weZxzeyH9BoCoEGkVgeoXxnuUraLrCf9UvyymroJPu/vvf/w5l3VvVkJV6ogg0isBYX04hfC9sAN78yF/1u+JebRiW5X+WU1ZhPcg7kKeMQjTkf9UIPOYBDbyR44W2Ygd+FxaETTKb/d8dAolfZ3Eg5SEv1r3vs9SpxbrBCWgl/fjx4wX6qscvMOLk2g2bhLCd+zBc8X+F/CvG4f8Sltea19hnX2C5cysTp+c9Dg5o6AlM5Gr+oBMvMQDeJIjR5Y+H2ZI4J3nPmvh2jQTsMgXRFwFv/Sv0yYCkxJck7eN3oHbKQ/jOveWNPwkwD8oZhHlBZI/1gMgk9gLhK8SvSGzswV/v03Kmg19kmAHjdyE4af+/fYS+rvETHGu8ShFhDVIaaeICyDtKkaN1UQH2JCzJOkADew43ckkyQ84FnIuXbSZ0B69FmeCRwg8mncHHyep+IgUdM4asJynyakmch7yo9xoagGZgqz80hbE8eIVGDkGEYcMb6xMak89Z25Y8B1CpK9POwfujax+4IM8UHfEpRebQnE6UNS95nz17Nkipu9FRJC0myEN8r2Ci3oC4sM4aT172SR/jZowlzxXadoP18wnGQdJSrHH9d4AVyspUaqTtmaYtM13wkyS3KXWQxFckazQNOm6AAXkaDbO4viN522aOxUkLPKb4Jk5+Fli5nLRHMmMczEHmzxgjp1weuCxwmmwHlu81GqQVVlUcSQTwR7r6SFakO2Q6dhI67lyXRxF/h45uFXmpgfC9oKZFm9tOWkW3el2MkVGgmTnhv1MldDX8gO81Mn3WFz+A9sKVhmCrYgFZjg3kmaJjztFJF0jbNUgfT+KTtw1rJ3qOOaHhe0MNhO8g3tg9vu8Djxmw+UwTm5ZJE7DoUEgbTzTfh0TSu9I4AL6ELC9LkqcV5CVxceCFlsgY3yyTWEnwul0sfC0zWG7HLu83+yexwGKSwOjj2i+z8xgjBE/67R6j9qQkusaal55YY2xSyqotimYhyEszeYKvkNeiJ6CRR1xiAMNTVzWyT2DLt00OLDAoPSlnR8yU44IrInkbvealwy4wlWfARoibY4C4TGTfhGbbnhwaHpnBrzN8m3YGOfAoJSsG7BROKt9hlacC7hVivTzKU0adeWku83lmDLphnXIAx0vWDzkW+Een45L34Qfx6zTrhk5H5PUnHvTrgPlQRhdhDO/j9jnD6vhA9hl2Qo5c2JH4TeAxgDY871z3iSxVp+VcD9+hY7hXOFOV73o4TL0RBvcJ5PQHfkXyXgP3BepdAr9V4FwsvWpOVN++fePOQh/1c2togEpfll7x7wrWuJyg3o+/g6q/ihK4USeykqBip2K9t0CcVUdi4F1ixh+57KxIam8YxnZXpHVvgdUSZF1wsqyKrGE7df8DHAaQcVAVoVEXsajtTSxbAnfHm/6PjXelA8mP73gfYUaPjdJWnIidaEFial3uA84rFrOw6rjWxWA9RYG9wgrdLcjXsMBplmby7mZx4y4g9BDSDDHpvClTKpB4igcpjqs2q7cEZuOwnbTGSvi5rqHItPr6sfOXLl1d8ew4mFc0bw5VMmBAfuKJrqoBV8mTJRyDhu2bZsmblgfY8KmvOTz886ZaJfH2VUTmFZYxb6uc6OIEnoPARjOVCw82xDspfh9oJ2rX7aTEwYnvxDXzLy677p5bGyDZSJfOIv4Waafwvs+aPKmZtJdkhpU2QtoxvmUcTqLyODaRJW+aOIFhanjnJoXi9NYZf/DKJG3daUKPJgi9arpGCQYfT5X1i8AVk9kZzb8qtUYRchdVBid5ToT4viuqTJYDXBcYd+/LHm87BGbFpmY007p2KosytfnDiQjrdU6wvZzt5Np/jvLkR8cDIIOJkRqZ363FlhNnHFPuvC/Tx/LgnVgbz5uZCo1TWWysfCpAICAvNW8vT3XQth95wgyDqrFe9zztV+XlsgFm74TYIM0xvkWc7utCs59Dy5+o6s0b/oDAeDppZlooHm44NE0r6bIjECFvN2sp0ASf4JT6C2v/cdvXuFkxYr4EIucpzs+LiWEMn8U5tXzuwmIFPDChGY+3dBgf6vA63jG2lCaxcuW2IAQKIO8ttO6o6U67guC0LoZnoOEfmEGTvrLO/DDDEkQu9EWIDzRwUOfkYd3JIdTC2EMufGZJrm2/Qjl4YOrSbM6Eb2Au94W82ccNnVDoAx4OeYtSbrOX5OekD+OCjrOc5WyzJxIYGnUBzXq9TZVygTVzF6/amaYkkagMCNDcwpMw58iahbzUuq/FXM4AvCILiDeHKdxDdN71cRflXEATj1BW7k8igVkqbGtjUmLr6R1PcuWWRgrwESB5sU9JzWuNKde6cMSI1i1pLNHRBfINULyRglOJAZP8hMsjVbxpuJLA2OOdmb6pg5XhGOapaaWSLh0BnGum1zJL5x5DUwzFSZWOb95Y7pmDyHyI4mOOsvjeNr7LPEs/b6tVEpgpYB6Ptin1F304v6b6ZJIiDQEMijFm51FamoQ47uu+pXZIiJOgkhDgEoVLFRR/m7GK3CSGpZz+wcEO4+OVfkkd77W/hk4vVmITEAg8zlcJUWlBrXjtT1oDXY/jkgdWEz3VbzLKqn2XuarcVA3MTI+ghWFK36kKiIfDK32O9XAvHi736QhwEMCkotPK5nPN9di+HoO0AarMtFyycOmCOo4z1sO+P+UYsM2vJbD/1sr79ykZlQ2zu4v1MElsLYxRBS1NxOd50bSeRfP8nzUV8logVnJSLmGwlHmPaowVXkSkfjAGIkH6Sy2BWcSXaWcKt/Slvrhtiv5PcWptwdBdQIviIRKrV+D4ZnPZB+V1ckv8QwSgSWeBl/r2YWx6CMcAfSDpqXZjjQjMLDhiObQxpaGJh08PM/8Kwq6ULb6j2YSOo/Y1/cia1xSpmtLRKuJWHqrPstV0YnPQw5jAwbugRzaYgMQjIXE6YoHZZLzckDVvOp6uxHJdnPWVxzDFjc9NGxOYwGBveA5T2mrvS0isHlLBs6hDdYrdGK6vZM27i4nLd1ziBOa07ZrYf6OMSds6Joniaay3lu4LWOL54dcu/apDvF1V32O9wy0jmlraD9J+5L6jNqEkcA6BYHtwAcGe2wjHPWbdOXYrDRxWzq0laGJb+56OrRs5cnmPImbmEa6MyAvNeynkvcetiX9pNQWa2Ep8mNInugyZCEwtCqfWwJbEMKe7IPHFs6PNoU6wNscHjqsPhm28www+MkxbejJqE5j+r1z9qZHSAchYQbD0ObLMzuOak7Q8mUzosEAe2MCTSEs8zGBlGgT5l5gAjvbx1FbQKaYEPsJMPA0xr/M/iHsCWbZmPNfk3DapU6am1Q1NjJONVie26Az7W7VlmIvABI8mMV6tM8PB6ZdZwIQA8w0cY/tEZBD4M6HT4UXTGQQZ6NJVEa865ikktkOf1heeNFsi1wvTnBgvSv9HbgJTCJ66Aon5Fo9MJA4asugceNOvJ51Ppg1rYjqufU33ffkKHNXMW3Xb06yGJpKYOwCwJl4BxzX2bM+47VMVpqrJMKV+yvhXkoyFEJgVF0RiWNXeGhp5hjX2GdbanKla9QERbtCgnq5RIMUZtO9Il66q+GDAX6jqawqJg1fknPDUU6QtmR8miJRhdQk8p5hADi0yHSP9JJ6+MAKzYJKYb+fgA/7xijLeLw8OvNnBxrtsA5mhfYcYOOcGWNxhxu0lzbgGeUtLolu/If5vl/epMXl+ADhjfLtxkDABLTBhvo6Hl3UfmNIrlP/csI5ELVwogUNBsE88wjWJbCpcmFX5H4KuoJl5kGT+7eT+pyuViR2N0BEgInbibBuJr+WS2guv+aFVpOrXyjWZCRCB9XCKtL209NBwpfBBVSfGg/FyKijjwbgoTWA6t6CN4XEzX6yrGqoIX0L4JdbNyyZo6GDG/axoSzTYSe0bCggtRg12Et4n/HeGxMScR1Vj5nKCyPdBVROYtYLEC8j3SinUbsQKMv4VDSqNwKwkWBdP4Nw6jFZaxjUaEq6dP8LcXpVRR54yDQZ+WPyDWTaMcOU/2kIt/DJFntpJDBk55ib4PjCXk+RGeqWnNyl9UWE630K8Hsi5czqrVAKHlYPI3C+mSf0mDCvrP4kMM/uI7/Qqq44s5QL4K+Tr6/Ji7funa2vfuMyGXtRaSBzIRnNZi3XYLqx/L/FLlcO6cLfRwnHnZqaTWGHDTf9TI4JQQxDrNR5JLHWbaIMZFxPFKd7PNTCVr+x0wakl7YBi59Q1iGwwoKOKGkuTx3/fU1UntmguQ5udwBFlNFGGsgeEGNSM+yyUR/cf5vaOEqxEA8eFokbGvvEYlWMRr3SIxLNZ3VMTP+p4f2HyWFtlLCExBvsYxZ7oisZM7LQXNyo/CWN4IIHPxr4ukyCmTqqo/LwGeZ05SYYxsoJILyiX7gO532KimjNdJRo4LhA1Mk5ejaGVu9DIb/E9s3lZQLy8pHtqYprtSXFVhwHwoUGdty5vwcTlJyHRLk5Muk+f77gm4XUJbeNZJrUuHDsXyNuzyH8HwrwGCWYWecpOajNWt+OpFg2sQgLbTxTM/xalmfEII7XwSlVnFeEYLJhPtB9nzjxrJY0kgNWAnYZdsy4SHb0sVBOj3iHqPUUF3WglBtd8EeDItcmSkxEmus8G8jPJGpPWn7xwisAUKPwEa9gB7oe5jmjen7Meh+VW/T8YaOe6el06NqmTNRpvsDccTZ6bxBzoNltD0cpxfQ1zvu71bkyk37cWkyG3n/zlVi0m9G+R1Vd8uAHfCb59aNE/YWK/p6mtzqGI2XivFDGVBMPMHBhUdO3KmWcDWXeSBHJPdgLVN7nMaa51oaVuoHlppVl90A9nLpM3aMzctFEw/wdM66wGVjWEe8tY2w5hk44gfJ/pdOZ2nWY0ZkrtRj1M7Fr2IFUYZwlHG5bI99Iwr5Umptb99u3bB5iNY8Pyd5KRvBjwo51AB28Ca+bGRLSwTY0jcLxxIHT/x8a7iodH76G538JhZjy7RfPmvTZZ/yLNzuZ83jrryB/svy5Q93PD+o1IHJTLJUjPsNx4skb5FiwmQv9UlrMmdLwXVPdwUC1B0FtVPMOhrX1NnZamjDjDPdA73XuPypCt6DIDp9DEolzfnE5Lj8F8CM3JybmXlk4VBy31Hlp7qop3NHxmKFeP46vxBGZjQdBatKsOaAxq7cSBQbbUldOUeJIF7bm0kLePJcZpPD1N5iA8K/n8H3tzbJso3szE+0ADJ8bFAzHxt4PAaNg63rjY/SB2X8ktnC1aAiPNohJhKqoEJu8IVd2ZVof2j6IkplbhvjHDTcuIpfNffA/yzmPhjbh98uTJ0lRQTJj9VmjgDp5KMm10lemgjXq6+tqkgdlWS6+0Dw/JCs0zAZGHeFyRJrN24vMzPvxzizIa/WNvwYm124dNSwzptoLAMKHXic2rP7CnEwEay8nJRyd3WnwGU5rFfQCR6azqppWdEsc93r5rBzRS5FVGYVJfKSMjEUjXDg0caZNTlxiQL3QCNXX/V9cuW1NaV54m3ukDGhrZH0Rj3CweBCYHtEMDJ7fNidCeRgpTU0lTjHvRWUzpLK2AFmrCAQ2rppkuq6ggWmFCW6HjUGJTU8khka1EyWhKG9dB8vKARrBuNM7nekK0y3RJ2A4vNJxYunXTwtFOWzkqV2FilWhKH5O8hQna0IJaoYHhxOq7hj8GrlYmmEAr1+QuWh6a0tAoowLL5R4vD2hMCiyzsUW1gsBAP1UDQ0Mvq+4hkDNVpqrlqbO+YE/2uAAZwj3eWQFlOVuEzcm8thA4Vds9yklgvkGEX2d73HHBeLIKIr7JKeY1HrlsxTZRThx2sreDwCmPDOKc9F3WB/r5fusnh5sLPCxxwy+ur/jwxA6CcpOKAMnLk1VIlAs3HPQYt3XLLRVATWTjCRy8RD6tmYu0yKQ4kLT79HBzypfjIX4QScPfOD5nfCQsz+U6T2bX89IPUAR52U6seU9cb28d8jWawD6RNukvi8P6d2EDLN8EAm17AcfYKCkfwvlCPq02MdwKKGoiSBK11jCSF2vf3Jo30gj+LvE0ci+XOHOO3xBr7odvtoT0ShLQfMYMNTNpIScDlPcBjzaxzNwfHumD2Ze7nCYWECGvsm+ytAta+BAknts4ebLU05Q8UBLLxhKYhIM5ewiNqPwgbor171qZABEohxr1HcoicbUDjpNCXqdYmjxNjyuLvCEuIPE5ltWJP7UZptmj/6tGEtjXljBz0VFKwgVEm6o68+kR3qT4yxvCXB4xTdpEEJbBMpFuqJsUwvT79r9s8gZ4+i+1w/XbtuIbvFpH2zyeI2gkgUE6PrXS17RwTKL5ZO8E72raeIPOxs832PxSkz+x3I53Dc07QpnLxPjkwGsEv0yO8l8s3lPFNS28IvL6sGDgDumVhjZWTtBNwy8qLx/Uj96rrmFCr+DjadYHhNS+A6vwFnW8S8x01poXz6amvtAOHXAJR8+gcHkrLjDYKrpCtb0sVRMHkPKVZd5afnvJUsZMyfn2TUxOF7rMmMReN87L8mt3W0fXxlzxNJm9jneMV9sOMprNq1wCNCBzZJ+3l0FcPoD/NycxktgyP3976ZT1W+ZzPjkms56JkHTmNY7AWIOuTBqXOw20LkzmPt9NnbUsrlHS8mbQOmnFVR4XIa9uOfNANhD2U/QBfP46IBJxyWHz6eN1sxObDE1Ia0hgH6vGERikWkAz3pbVESwb37eB1l3lqQeDdKnLb/jmSl0xlcfnIS+EPYL2HEYfA+Q1X7yOuDubxnBria/iscnjelqMm55ORpjPC6ZpHIFpyoLEQ9+81bXSJh4aF2W+x/uje0W9QxqOHS2BTd5cadOMKtLmIK9vMqucTyQx32mFNliRGBrrtKkToaK/eorwbTDa7I+txhGYLaAnGCTucX1KjbltleUFJwF8z1DOa2pcEHdmWURq8uDsbupgREf0UwtxMBK/TcRjjVZyQ6vsmMyqZvEATAYSd/EyPO5MtOKDMaF16EED+wTutKHFkV81HOD88ou0NpHwWEfPkWYO0i7S0hYRh8Go80R/ojlZRF1VlIH2nGKAjSzq4gQ2UWldVTmmnthY/mPUM4mFNerWsN13aGeXDWsFgeM9FPyyIRvHRnZDxxe2gpYZvcnxKozvMVNOkPhDSobtT0WmpHEiKgN5c/2UJ+obYbI4tWk8t1aafNTSYLzwh8kb8VtPNv3mbFoMQh462KR9eQjC2QYEgnFgpbUhHgdNMi2iTSRxvGzN/Weu0Yuou44y0N6Fpn0bYlKHbHtbJzpkremUscvgWJJoTTOwyPZY1s8B3sj1MCcezTjxFUHLHHZFDpVyysKAmqd1DOIX5dScv1Qb8rCdHIT5a31Ygo0cAdZOT4oPW+jxR7tNrI1lUl4JKxEBk44pa+DnaZaJ3AFZaGGUThgLeXxN1YSlSbR/0L7UiZ5YF7U0idYr1xoEaPIEAz1tLVw6ATRi7kRz8BvIzPYsqzTpLEl85eLEuAN0cEM5TfCuEuskOfc2jANd00F8GMCJT0Dezxp5Sd5JHQLbkLgpGsuwTWI+1zHgWCcG+1hHCFdmVw56jayroh1Vtv1iOOB9iwdph7blV50eMs41mLMtTllpVWNUa31NMqPTBhPjXDFLDSYan8AY+E5vLRmOjY0ruNdKpDorx+DX7fHd1ClfWDfkTPKG8pzyKEzjyn/INDPQXNxaunBF5rgcJm1Amnk8n9xXjAA6YagbbExTsViJ1UHOSSgrZFq47NGFfEYkZpsSG1tjoKn2rXvJUiNEblWNQbQKiZH0H4PRWU3hFpK70piS2LWJiJNK0jiIha12Wyt3tSFg0mEy22brHkMS37iylqQcGA9abz/aNcqGiOQqHIGg09axGTZ0toReU9HCGZE3ITHSnGYsvtBshk64NcdMoRVLYfkQEC2cDz9dbkMS1+prsFj7TnXtlfiKETDRwiC5Mwc7KoankOp0JKb2K6SijIVAvvM0KyyMI9EzViHZykTARAszTZkytL3sNBLXSWD6OEKCpv2n/G3vo0a3D52X6pFm57rmNW0a4CoS14kr+vUqjbhhnGhfx0cbBpfJvrA4tHL2Iwgxxjd0HK6Ie84iM2eHHCbbRjx4MstciWSsDgF01DyccVP+j6uTSGoqCwFq/ZQ+ju5EiOe5rE4oulxDh9bnOk2+otu8j+UF/XxjSODJPmLU2DabmNLoeKcP5DcW/IoERx8beZ3Rz6J9K+qTQqvhmsdgdm7MA+qFgtPwwtCvRute9j8n84Y3dz/FD0yspY7E6GAnThHtZy/Ztxr9NdL1aRjPSdy+BsnhDAKBkyP0lkadGvHriTNCiyBKBGzICxIvOYkrC5OIZiCATh+GM7Lm/4dmtGg/pbQk71qclC0aJyDuWENeXyNjkIg57WC/o+8OTfovTMNJ28FmiEh5EECnmji16PQQEucBuuC87I+QmCb/kX5UsAhSnCsICIld6Qm9HIET0uiIZEjsOs9j61skKQpBwJTEGBRXcna2EMitC0Ef0W/xOSSmyX/2q3VFkqGZCFiQ+DMHUzNb2TypqXWBt+kBje1OgpC3eX2dW2ILEvvrYg6u3JVKAUoEOFHaal1qZiGvEtL2R6DzjQ8FYLBcydZE8WOCz/KiHy5MzORYGidfy1s8QlJiKgLBw+Dr2ODYmmfxcAy2U1kbp0JqFEkMgaW1uRz0x1ImUyOY9yMRBxMGxjJO1pR7Olg+iFltPz5A2jc5iOubzIK7Pe57kYPbECmkTdLKNxiM7/YCnByNJOE44eF7Y4lvFHMxmXP0wd5kDUzqleVA+4x8J2Ja/x4mwTl0kvbKEssoaf1rTJIz0bq/sZUrDQIcLBm0cTjYzmkmaqpoXTQxozWC7ykIyyXGAyJmCFtyQm0dWNKgahCgFsGAXGQYeBy83ENurcMrwCYkbG4tG8OYFtC4ml7eraWzeyt3bUCAWuDXr18ztOVFhvbQw/32x48fiwx5nciC9r/abDZdfPudTmfA/xCsjH3xW5Q/+fnz56yuhguB60K+gnqhUUcYvNQMLy2rWz179uzvNT6W+SpJTm2Kdj1nZZioBphwfLIirIcgfsv+1E7csIFC4BCJFv+nRiaR8TVe60KzzKFZ3tYBS7COfAN5qTn9D64HwWVd/24xUcyBy+zff/9d1iVEvF4hcByRFt/T6/zPP/+M0ER+teY1BytI/B5pK/vQufTly5cbVNitrFJ1RXecyBDNyYz/nfsIgZ3rkmoECszQEUzQIWpUkrlqEgfr94tqUEis5RqaduGapk2UFIFCYBUyexJOIkO7XKU1t2oSg0CbNHkKjqOWXaDMObBYfP/+fVVw+aUWJwQuFd5mFA5n1wxrzHdp0lZJYhB4BVlepMmTI87XsGgvzyc3jrDxdguB44js4X2wNl6i6b5nVwVBVSQ2mVBUMkbCbyHvCkRdIIxbY8smb41F2rVzKQTegWN/bzDAJ2j9Bx0CJPHTp0+PytxiAoGHIN65ShbIcBnGBQTlrU9SxK1d8hKHcsp/QaBUBOj9pemKr8mRwlJ/ISJ42kolh/zETKkjQQpvLAL0ABsSmOS6oQOsrMamTSbBPnFZVTeq3INGSSvClooA14gwQc8MK+nBe33B016G6a2SQY6VVYY9TSwE3tOOVzUb69sx4u5U8bFwHmE8BYlPaYLH4nLdgsB0qiV+UGehdSVW0pBAIXBDOqoqMemcAnlGNvWBUCOcnroq0rTFAZO1SgbU11fF7Vu4EHjfetygvcGxwWODpNEkPZCOJvV5QS8KUBIY62PRwFHk5VoQSEIAZFxYOLWiXuPc7+DSONRST44ltUXCBIG9QyDYWuL+apScNtd8SUDqCS8VqBoCb4pec6vkcD1cTGjXe6hG+bgeBgEHEMHUqRWXlk6uGSaAm6xEjhcY3n/9+nUYXst/QUAQSEEA5Bvm0MJRjW1F5LQ6IdMsRWSJEgQEgSgCIMwojVCWcTdIf6gzgzVlfo7KJ9eCgCCgQaBgEvuaGWWeqrafEJfqRFPl0zSjVdGyBm5Vd5bbGGwvzbBH/L7IWriHzO0naFtfK8e2oJRbSYEMe78OflRkZ0hZ7UcAhFuCbLdoadHk6aLM/8MkMUb5fXy/o64Owgb4Jn4Q/we+/58YuSeBBEg+goA1AsGbPBbImPoMsXXBlhnw9sw/6S23zNaa5GJCt6Yrq20In7nFGnWAWqmNa/t8+/atX1vlDlQsBHagE5oqAkkMDUhz92NdbcD6eVBX3S7UKwR2oRcaLAPNVzyGOIZzi++QznrgIzMCqFc0cGb0JKMgECDAByCgjXsg1KcqQYET62WV9blWl2hg13qkwfJQG4PIQ5jUr0Hky4qa0tMdCKlIjlqqEQLXAnu7K+WbPUDkQVVE3mdHlhC43VyqtXUxIp+VJQzM6F5ZZUu5goAgECAQPJ7IgxpLfP2jlEX8L/Pleq53Xsd1AUW+diIQHAQZonX8ZnZEca1Nc72dKEmrBIEGIEDNHDzAPwkeYFgbauYl8zagiSKiILBfCFBDg8wjfPlCgFWM0Lyf7Bci0lpBoMEIkNCxJ5Ua3BoRXRAQBAQBQUAQEAQEAUFAEBAEBAFBQBAQBAQBQUAQ2CME/gcuPfsaVPZ6qQAAAABJRU5ErkJggg==;" vertex="1" parent="1"><mxGeometry x="344" y="52" width="57" height="57" as="geometry"/></mxCell><mxCell id="149" value="" style="shape=image;verticalLabelPosition=bottom;labelBackgroundColor=default;verticalAlign=top;aspect=fixed;imageAspect=0;image=data:image/png,iVBORw0KGgoAAAANSUhEUgAAAPAAAADwCAYAAAA+VemSAAAAAXNSR0IArs4c6QAAAERlWElmTU0AKgAAAAgAAYdpAAQAAAABAAAAGgAAAAAAA6ABAAMAAAABAAEAAKACAAQAAAABAAAA8KADAAQAAAABAAAA8AAAAADV6CrLAAApTElEQVR4Ae1dvZbbyHLm7OrqrM8dSXTmTNzM2dJPICh0tHTmbKnMmagnEPUEO3qCoSIfRxpFdjbQE4h6AlHZzcSRFOje1e74+6gGF8TgpxroBhpg4RwSQHd1dVV1f139B+BkNJDjL3/5y/T6+voefhP+Tk5OJlCN12Ocp/gdHIiPDwJGow1oN999911869at91++fNlk4vVWLRCcBU6Ck0gg0BjHp0+fHgBwUwAxwjkSJLMmMSDfIGGMBuK1gtrahJrAswV6A+Dvv//+Z4L1jz/+iGCTGx7Vs50S9vTQF2gw4t9///1VEqhntUBXFggawD/88MPk69evjwHaGQw06cpIRfmiQVnh9wIyxkU0Gq4W8GmB4ABsusc/w8stoHhXntbW5hskOLt79+6LLQ7bxEqvFqhrgWAATOB+/PjxMRQhcMd1Feo6Hb0yutnPf/vtt3XXsmj+w7dA5wAeCnCzVYVAxsTXM534ylpG711aoDMADxW42cJRIGctovcuLdAJgDGjPMMY9xyK9LarbFkIW9CfYTLumWU6JVcLlFqgVQDT62L99hzgnZVKNdzINRqvRzo+Hm4Bt63Z921lSK/797///RL5TdvKM8B8/gWN13+hWz3C+XWA8qlIPbPAd77lpdcFeF+iwr5EXl11md8CNATMlW99hfyXmKl+w+2fQnolUwvkWsBrF5oVFDuWCNxJbu6OAglO/NYYY265l5lsT09P15I1Wex75lbMMX7cljnFeYLkP5FHC8cWeT6BjVYt5KVZDNAC3gDscaLqCpU+BtBigHXtaxcU5Uc+ydZN34BeoPF5PsD6pSr10QIA1mP8rl3+AKgLgqoLe5hhwBz5s9FwqlfCD7w5K6+HWqBbC7AiJpWy6ZmAwW9OAHWr1Z+5c382ut1n0G3TVL+c9G9C0vVPrfXqKCzgCrwELsemoRuNjYsHICuIQy/4IcrnArzgsaKH65t9PABZQdy3StBneR2Ad90Hj1tVRgbInAl3MU5WEFcZXOObW6AheFnZF82lCIeDmfC6cAXicDRTSQZnAYKvbkUF8C+GPGHDHgVs03iiiw3k4CqOKtS9BUx3sVZXkWm718C/BMYbr+o2ckk6znr7l1ZzOBoLcIcVKteHpIJZnDfHuH0Q9qndU0lseyyN3tGAqEtFUaneJBVLekYFjIfcZa4qD9Ol3krtlUP34Rgbvyq7arylBdidy6lcpV1pgHdlmc0gyblEBtutbe2XoteZ6UHWjJaUAhBnqcpUCtqETsF7WDjshcA2tUGs4+FDe+qd0ALGe1iNexW8+cZ1AOIon7OGqgUKLAAwvky8quSs4C0wpAluCOJ3TF+eg8aqBYwFAEarrrOCV1Z1DIhrrRVrV1pm46OnMpXsncTrGpr1EI1GO/iYBTZLcqL5hGwZ9HHf+BDrRtA6odIssxWn5H7Dih60QpbCUR/0KC5TOr/D/dySTSk5+aX4i8GMdHzbiR5qgXwLsPKiYkknrrY+PFS+ZO2EGv1z17y5rutSCoBxVQfEruVwqZPy6tgCqFBi7+vaK3Ws+i576HReBCrExS5lNI3Fpii/onDIwTd96qEWOLSAjfdFJbo4TN3/O+hU1a11PtanNy0Calm4euH+1zfnGqDCSL3vlmB3LkCHDM3EUunQAQBf+RCRjWEZWPPihtiA+rDtUfFERXmXV1myYag8s6EZBjrmjnvTuvvS2/R8tum8JNc6Iz20WthAH1ZOSaUBXdwgmyCTojt6JtB941N45L8QyHAwW025fcqkvHtkAQDzQlKBhjb2oj6h6A05NhJZUjQfelTFVFRfFjBduIPWPVVJ9uEEuS8ZuuBr9JYMG5ZtyAf7zvPsXhbGNG3IpnkEbAFpxRma94XeL8vAYeI2bRYd8rTywtBh1aZ8mleAFkAlkHSf1wGKXlsk6DwTgPcadPPamdRIyPwkcqVotBtdw86DSWLRfZ4PRWmLxyS3tE+bepvy2KYAuh/CFIWxMWpTRs0rIAsIJ3G2AYncWBRU+MsiMGTCl40zq8EA8q0ycpSCmPQ1stEkPbXAwfeB8YW8qEoPfLHvooqmL/EAxgJfOazUmfrcvn17xXPbBzaVLG3yhD4PbOiVdkAWQOsdV7X2oBlEF02y2yqxRddeDXJYTWbppo4BgdJGlaTClpwH032GjpW7rRI7dA0IDG3OElkk56E0sjZ191hp911oyaOA/LD2EAwFECyhx1SiC3R+/eXLl42E1hcNZFjZ8AZ9ZEOvtP21wB7AGP9OqtTA+Cquogk93jRUT6VyAgxLKa0vut9++20N3u+l/FFOosZJyk/pwrXAHsCSQucYOVxVqiXjsszvv/9+Xk35jYLe9+vXr7GU3icdZBHLoRNZPksiLN57AKOCVLbaxhOEpYGFNJ8/f16CvFLPFMtV6rrTS4By3akAmnmQFtgDGNKNyySkNyqLDz2Oa9wYJjy2kPM9vPXKgt4rqW3vZ2hbXb0at8fM9wBGC/9TmR4AcG89ALvOAK+460w7QN9lmT3ajrPt/aA8SxvktuXX/PxYYA9gsC8tcABg40cE/1xN13likVNQ3jcl99vUdeklADwtJdDIQVggDeBShbD00ksPXKPrHJz3TQoGvYJtcq1ntQAtsAOwZA24j+YyXeeXlrKH6n1H8KqxpS5KPnAL7AAsGS+dnp72zgN/+vSJ496xTRmGNva1kT1NCz0m6Xu9HqYFbknV2uKQ0oZAx+2EaJhmlrIE632pB0C5hk5SlSZSQqUL1wLcxvuPf/zjZ5R9BCnpjFZYHXmRSCwGcJKgD2d2nT9+/Gg160y9Qve+kG9rAeA+FJXKWGABAhcrD08B3jlJUuUeYT7qR0wqLxkunsQisauDE0sQ4il+Nuuy4uzrdJ3BPGjvK1ZeCXtvAWIDwH0H0M4LlHlKJ8W41j0wwPsrWo9FIhi6ulN0CR4l903PNbvO9L57mZrKEEj6bSByqBhCCxCUcD4vAdyoKgmWRqegiVv1wGZJ5wAobGUAOuvubp6CNAD4WfMCeF+jEbnI49nXMNhh3VfZj1FurgRh2PcO5RZJ9AeWNqTbAbitGWYIN2em2YPhLkBcs+sc/Ng3ay+9H5YF6NjgQC6h1ViiGRzOi+QR1x2A25phBlA3RQISxOj7L4viq8IbdJ1fhPLEUZWOGj88C6DezjGkFIMXGHkOsM9vWAIRpS9Lu5GgRgBn1qryoUK2rNl1Bt/Sj5EV5dv12zZsdIUOiyI9csIPhio2+ShtOxZgXc8ptyIcbuips5Klx8Dvs5Gu743bf1bGF5743BbE6Dqfgaeo+5HJ+1nSFcmEh3or1hEVYx2qEirXaMQ6zrousQXK8vndu3enpT1FMIzLWgOXnoqVqywvxklBzFapildB/EZivJBoYJNVgS43Wm2X5RWSDYYgCyeshOW4rcLB3gNjYFzaYgP9E1fGM0JdlfGTeGJ2nTF+ELVi2bxgwHk2rAf3E6mMPetZSNXqPR3BayasqnS5Ak44ubUqI9wDGEDYlhEifloWbxNnnm1dVqWpAnGNxwR3WaKxelXaHakSrKN42OO+JGsui0nolKZdC9DhAJB8uGZckfNbdJm5E6vUqR7wEHRFlwcJHNyghSnttifdjLxuhEU3JNu93NKQDsRvlQVlTuxRdYa9LloVTjMTWQDlcllVdohfs6xFDNNEVTPEBFua3sU1BYXAW4FSBOHTdJ5CY2TBy7H1LM2nL9eUW2gn6rzoi17HIicc5Jmg/Da1wJsYERmUgelNQufyLPD8exCiEp9TQZznAmPs0yW0SNdbzwQdlokeVWf2TlyWkfJqZgFhfd02LjdW8LLK0ah1KLGBTeUE7TvzuwHQMtkR16x1K5G/jSiUjWi4AT23bcijecgsYHq2lXsU6MhkHEuoUPilrTwq0awkeaMo8F5VANAWsAf0jVu3Rto1S8yGU2obNsLNctPULi2AcpN8wmdZN8/9LDQZVBU+ZkG9dc3u3LmzgAjil7bZKIxZ2UdWM3o2zFugxUYVccOJMopbEEmzEFiADhFkpZjhigFWeEjn5kCmheNgADx2k0s+F+NpCvOXeqE0HScP8nPrTygb1rROZde6gSOMchWukmxZ551KjMpS2pV1nmFGeqO4ExBTlwz73t3S3mWAzcSte6fgQAVGuVR2nVE/Z03VP+hCG2ZxGVOb7lwZn6I4dnWhWIT40p1aRemTcHRNXuQ+tZEQ9ORsae9VT9QatJgA7xIKTsuURP18hfp5UUZTK66qxQe43GeaI6mZvVtnPMzBxFRR3BA8b2IS6PiuSM9suO/eUSKTnostULWfwpTZ1utQhyDNVo70fVsVhflUyZKWy1wvi83brxjoPsvRL7cRo536pd0wpUU5XArKbOFVewgxLxOC8V4FyDA38mzKZEJc7vOSGVa9uhVWhh2gQTvrlXIDFJZlUFFHWVbrVlQnIIqEYcVqRYhUJvTGkGeBvGOct0a2Le4v8JunSAdxabNDDbbYDELpniuBcnhn6uWuUc27drJhQ2InZL7MEyAJa00QibADpIGdK2cxk7LAeTlAE/RKJZTBIlUeuQCm82lNqarBOD1fa8IcWUbsUVRVhlT8lr2TIzNRUOrS/iiPyu2SXieu8iyCirRKVZQbrUrrAuUJObAwUxkqu2KpclkOzAS9UwdlUdpbZVkRS60rJvDCtl/+a12HvmXInWMpcN5oNDNxWwK+bzoOSV7T4IbnfRMjV3lhHQsnlmp+pi0zAC0FMLvazXNVDk0sgPIK0/smShkvnMz65lWodwmtnutbQNqSJwAHeOP6uWlKFxaQllnnQ01BK7N0YZBj5gFAXibglJy159N9bUE5hTXzXGYSCLsuq1iogLOy9BpXbAHLce816Yu5aUxbFgAe3pVhgnHBNLSCx6M+9Pmh+bYKPZsPx7FVlSAT3+s3i2T17+s9HVamXPKGl5ug9IPAVQP2NxwXBCV0wMLUAO+1NpJhFCjKTjLkWfiW9sQ2Awge460PD0rSrUHT6zdglOjmLIrghR3PLRk+c/r2BsvMpeRsxPHO7p/S9NCVn36dpsPyruEkEroN6Dd5NNkwpInTYfja5lufH+zjpBQ/wJ3OM+8a73b+Z59yME9rALNw8B3TGGkPCojMUgf3KD/s82tsUro4v6wDXvP86My5MEKGrLR4Gf79NBAh0wTJ+RshnGf+Qjw2kHVDwSBnzDPvkzDo9Zph0oM9UdA+LaMH71aeRz8pE6Iojt04PIwcI/5eEQ3DocQj0K3KaI4trg54YSO+qT/y3Zobz/ILym2CPPljhafXHPP6CI4dqKH/ml8q4Rm/bRbgADC976TMHkj3H14e2M9kWgvA5CEF8e3bt3/U7/R8szpmJH9FxVhkyqDqdveNHN+9GTQsM4BVd9YVl8YO0Ijewk5VPaErlHMrjd73xfKWx0DAv6FC/h+U+XdQFgqLVugKNHE5t2HHctgBAP437DC31LQV8FImeIz/xamwHC3lHiL5D1Bqgt+/VikHW/4Pyvqiis5FfN47scR86RX43VIkKHwdLJTZiBkOkJDrgJgzeIMCndmqB9vNfXteymRmtie28il9oQVaAS9zbwRgMuC4DN6YIH7G+8xxhfc9t6ZMJu/ObzFWegrbXEKQia0wAC/nD1qx3V//+teNrXxKX2iBq7bKjRLU7kJnxWc3GeOo1wj/Z/z+CRXwNca/Mywn/C1LO/R7s/uG48n/rKOrAe+qTto6aTBH8QWNzY9Iy4ZYjwYWQNm11n2mmLcayHojqfnmbpxEoCVKLo/izFlcdHk5UTWrqXBrY96sfPwyBl5hy1nnX7Jxem9lgdiKuiHxScP0mhwW4CQVehrsLi8aGKQz8GZlNmu+E4ab4dEYnoX3EwB8jHPZHgBEH+/R9qqLArhBXTMe9ykq9bwBGyZtZZ23oYw3kpuhAr12sntqRwOwRwkx4h4k1z05v4X820RWXO/WhHH/GD82XmXHezR4kzIC13EK4BoWxVj/ZyRboHJGNZIfJEEFecHuq+9NGgeZdniTgD4tQuLl02F51+mGIR2fAlk6OPcatPsdWCSAPBvJPgXMEVznMkwFsiwxbJyngvQyFAsQtPidoyArX5/Cwhb8uN10Fop+KkexBbjMJihPvvdqXszFT4zTSSwXIibb+ciLrSW806suvJPpHrP7F8HTcpdSVfdJrD70eo1KMZe0/GKmSujNAqaHUMkfIF+3PXEbFIDZguEpj/PEUgDNCJsgRjQMfjHuY5zfu97cYCZt7qOgIoCLEzUR5Jgkcjg8X4H/AoW8arugHerQGqvxYrcPe7s963YzEMpsyrpYdbiul1X5MT6YMTBncgHWd5BJ5Olg1Bi0Wxh2jTNBzvvSA7Rj/KYkQnp6Vua1uy9N6CAS+R3VWLeJyQDc8dfrEdfRox2fk9HZ57OTJ014NkkLx0Lnwd5Y2fFW6qnLmNjGBQNgTm7AAJe2CoROD+C+Qnd5od1leUmdPr5+A+qDhvW7k9GTj2cnZ3Iu7ijhHD6AGxv7woMNdBcTWI23UhZqdOQRKNDXKPiHKNSZgldeGe4sdktyB+BlavRgn9Izyzm5oeTwCpwq84WH3rjJ0Y5LMAA2u7je24kfHjVbYi7mA7iR0Sk8IcOWaJYnHkagY+zry43Lo3cVhnHtVMJLMoST8LGlCQbAFNwsq1zZKhEAPZ/GesJXqLAbpR63fonA03KNvehoHcDJnEmRQF2HBzULzVk8zGVNsCeXBcWlmwjne10bqSB/gnYFb3uRABbLXQWkGiyxALrIE0xeFR/Xo6qJpOK0NWPQo+JkZ2XqrnpbwUxiFVnI7NwhmKf4tV6AKbm4xW6N+5iPSHaxNp2SZZCXpws02NejyzLlbp2MfmxzWQld43eQZ1ImE+MwAdsJloLywHlGyj7hxF0xnK4HmAho/iZIdz8vbc2w3V5YghX5bDm2ybau6mlrWrYiGRAwvq6g+foNTJsKMifRZmlzImDG3lgnR/AAzlrFLJbTEx4cNDaeCJomgQQ5rsfJffqcnnAAULdlC/Dgk07a22t4t6cn19i//c0mMTzZf8CTbUNSCLLty69ErghxcUm8s6h0fSpjyjpUFu8zrncALjKG6dLGqfj0dSp41905uB/6DZdmMIxbprxbZDZKPOyb7vDSk7ZkNk6gMjv21iqJPBEENQvtScejZwvgznOMEJmtijlR3QQBnJUeGLpMWpRuLMmLQy0JnQ8aBbAPq/aEJwYHUUiiApwiwLQlMzyryD6g27QlUzYfBXDWIkd0D8BEIamLMfpPlfK0uJSECVLREqYCuLLUlMCLBVoEg0T+0DwwZK7s0kv08kmjHtindQPnTcDs1l4DkJObOAIQYy8Clyv3NxUX2WXGCnKn0Qpgp+bsJbMoBKnN+q5IlDbAju5zUOPxIsMogIssczzhUQiq2iwP2YC9rm6YWZbapbNNHNRNAVy3hIeSLpBxMLrzk5BMis0+Ig+MCaxtl3IrgLu0fiB5BzIOjgIxx04MbtMVyqMAFhpKyfxZIPLHup+cAeD7EslBt5bQ+aJRD+zLsv3iG3UtLtaARYBpUc5Ji3nVzkoBXNt0A0oYwDjYZgyMF9zFPq1vs4TkUw4J78E8zCBRVmmKLcBxcBNgnD45fFYbnmH6x/Xh1kh42SmAOi6WQhaDl96BTeMjPvlutPr068mLLCebJSQ+2dblE2sK4GzpHe99BNXjtPp82OHryegel3gAmcku7noUpWj+vM48dZm5NUlTKbu/jK7/GEV3Hl8vr09Gj9KNFwA86V48mQQKYJmdBk8F7/gLPNsDo2jE8+71NvB1Ltyd4RvcCbpN+BYQAHn16fnJIwrYJwDrGDi4KtWNQLuK/O3hhqgbCbrNFfrPzStt+ZEAcTe/y22UtJh64G7rjfPcORbdd3nR3d1fO89peAxNI0YPPO2LdgrgvpRUSs5kbIquX4TgMc5TAPXbBBEGn6iI+yN9vQ/Ui5sWOBm9BRjObkaEHYJy1yNUC2S9KeRk16433iFUu6blOjkZXaGROyN4k3eEoQstbvcwA90phtQDp0uzwbX5HOlPKPxaX0+kV0VVeICZUXpSgnQ6ynjTBuJp0pQFCFrcXvD36eyE57pHpw8yUGgFcN2iS6VLfxYVX2bgFyZinB+mSAovMXEyQ5/3HDO+7Arr0dQC6AqDxRZucQtzrskO1xtcb3idXi7iffZgQ4xPy2aDc++7fpCBQimAc4tGHmgK/DydApMgEUENEK/S4dlrLF2cY311ng3X+2ILwHu+BxhXhiLmGZWY3xDegdWE1z5hVnlSO3EHCRXADY1eUuBzsF7lsUd3md+/vURFnObFH1OY6c5u0ZDdF+q9hhddCmmtydD4jq0TdZhAAezJ+KgIuS9oS8CLbIcP3pPRa5o33YXFbcwwVLx1MmmEbZxLBD1leNWBRs+Jpy3KB+XWq3JRABeVpDD89PR0/fHjxzzqMbvXyYfPEgLzQvVeVZJEdiBxN77c3x9uvYwZjgq1ATA3vB76gTGw18ZEYj8FsMRKJTT8IgRmnnMpzLdlN0kkvC+/vhcl90GeT0bPfHZRg9Q5JRRAiX3f8POCo8sXuifi5de8JFbPIgug0HddxSxxtju280wno+dZOpf3uzElu67mh/tXnPixyCOyoHVCikq4lTJid1xKW5NuUjNdJ8nUA3s0O4AdZdnDuy3gic+wxDtDO8813wkqJZ/2ub+nNWPH/f1hV5XBcSqucmkEY0zS/8k/nThz3cWD9bCFuCsKe20yIh/1rQLYQfHD08Zg8yDLCuG5E1lmjHiWpfd1jwaCa6KiA3QTEaESBWEB7UK7KYaiLuA4hLc7AJRiD+fGHP64wOMU2dpJpmh07zth1BITBbADQ2MSqxAgmOiYOshCWRgLoPdSaGtHRpo44tMKGwWwAzPfunVrU8ImKolrJQpdaN+VvhU9QsskhGUkBbCDWpFd602zRJfsQfq+i2t0obc2+WKSLcheg+Vsuo3KtWgBYCu71sqkIpECuMJA0uiipSSkn3BDh5SPD7qqDfzZPPHpknE2LIR7NEQbn3KEMF9hq58C2NZixfSboihs6IiK4jT828MIIdgBvaUgG64y2yiAy6xjEYfC35SQz0ri2om6ubZcmC/XpQsjPURYTEzFHrLvNUsFsKPiw0x0YeUKYRwMNddSVdFVnUhpla5bCyiAHdm/YiZ6jOeDO/XCQ5iJ9q1DH5f8FMCOAGxmoq9K2HUKYJsJIABlWqJHZ1G2s+k1BB3XSNNpEgWwQ/OXrQuiG/2zw6ysWdnMRAMorVdkyRIRdmFtrBUfeAIFsMMCBkjjEnbsRs9L4v1HWUxk+RfmMAdJD8HsIT9M6PAODXBkw65i2GTDqjatAri26W4mLPPAhvqXm6laDYklueGJpNyHMCRpj4mmbANPW3ZQADu09J07d+IydvDQUcebOkrlS2TvpAtd1T0OuPeQ2K2LswLYodX5dg6w42tnCg9s6lgWRnqOsBkHexblBntJF/pGIscBaGDvO2bpnZ0C2LGJy9aDmRUqyS9demHJZJFjk7hit3bFqITPpCQuyCgFsPtiuahiCS98XkXjKx6ejr2E0gMgL1sOK01bN1Kwxlspd928+5xOAey49MznJksBwLEwPPXCcdYidliKmVUBFGBaipg5JKpqWFBRFcA59lYA5xilaRBmoy8EPJ528fSLWYopbjwwWfTx7ORMIH+rJDbvzWpVsI4zUwB7KAB4VwkAxvj0ymUX42F80GsFL/zohif+9onNmQeTVLJEz2BdSeSRYIzDkv17S3ov5ApgD2bFGJeVsXQ22mQ7xoe03mBDQORBjFKWBPH33DKJ90ADyK++Oxk9wSz1FB56W5rQU2RVvr53YX3+/Hlqoxp6WRsbel+0GO7o4cMC3HWFsa54sgoVIoYc+EbQ9RrXa3jxWp8p9aFLWzxPHxe/Uf3zczQzHg82oniY4VKaBcroNXpQkZTeFx0aNj18WIBfJgQIl+B9X8KfE1uGbobrEdKPkJ5BG7b2CItxza9ArPE5l7dmzZnxwzn46RbdBWZVngpgK3PZEQNsc5tWvYA7Xvp+PUFcxHjwG/FbTOC9padGEMG9wX2M+yvTfSdpH49Ouu99NFQiswI4sYSHM5eU0JV+BYD5eBJpDL5RIjaBzQNA5mnntXkmuOnBza+fAP/2UTXq5e2A/azGwLBr7E0YC8YKYAtj1SHF/ug5POYGae/VSV8zTeK1d8lR2Ub88TAAT7z3bsyN4F3XvGsPjkHuGaR8sBM09YcmaZW69XU59sXYJ18FsE/rgjfHqljvjTCmjXHbJojLNEt77xkJMx48AfgIoF4jbte1ZTedtL6AjpnxizuL60fI4gztzT0ucwHQqxDXpWmHEA6vM3shKBiKDLaz0qHILZBj1z03dLsuO68JfPx2wK8z6cZ3U2NpaS3IX0TCdV4sFeU+JokGKoKsEXopkYgZiNCYPTS77qRJvNApgL2YNZ8pQDxDJVkhNhRPnC+o/9A06Jlb0pXf55x4+ySAjUAWgAReEg969iqmyT2uJ7jmz8uhAPZi1vCZcvskl5ggaa43CF8DlZAWQGP8byHM+KsH7qg+ogVfIusFfsfujTsqgWbZwvsHgZ3dmkMzVTR1HQugAizv3r07Qdpn+JU+vVSHv6bxaoH3XrlbMA+iFbGQd7CkpmudTKb8PFhFB6AYJryC2EZJUyqAA61QZm8uAc01XU7O6Jg5kLLC8Oc5ZqA5/On80HXgzosgXwCzRBGnYw2oCeYxlz0YB3Df2PjAcD1EFriCHddmxvq+KAWIMPzZSGl906kH9m3hFvibNU4Ce3ekl1fowRGYePFjnTB7DztsANSYZ/7Sa7iYUY5tGsJQlpBY2ApgWuGIDo61UVnHCchRmSOqjzA2AH0F+FvosYX8BOkG52Rr6Fay1ANAYsOX/IDtgsGNdqHl5TYIylSFjvMUSntzVNRdd510AMgEJ/52BxsBXHgZlyOv1yYbng42eSBu50EZgc0d66LHKiE7SSoPs7mmki4hyMiWBHd2VgB3ZvowMzaAiI10ydlaWL4qCN3USTYhACDyitl0efeQNS/YNmxmkwANV2xDr7RqAbWAJwuwkWH32ebXxeuPPKmvbNUC/bYAus8vbcAL2k1oGutOrNBKROVpxQJm7GvVfQaAL1oRTjNRC6gFii3AmXiA8YOl971mumKuGqMWUAt4t0Bd8HKt2LtwmoFaQC1QbAF2m+t4XnpqnbwqtqvGqAW8WoBr2wDvuW2XOaFX7+u1eJS5WiDfAlwmguf8ta7XTQAcsvfVjRz5Zd8olOMs7AR6CiZjMjKL/8n2vn6+2rWRRdpLTNvD3r/A/hE+W9N40gkg5pNHcXsa2OUUzJ5OO7HDpWZ3Da+RfQcJd+AtkTTZErjbv5tsEcRZAV5itHQUbc33ZBGssBuBGyG+yu5pFlXXb/HShahou2ZV4jbiFcCOrYwWewGWvzpim7zZcb8fGBU1CeP+5N6D3Wy5rHyUD+Cc8AedJ7Dt7ppn/HwdVxj7Rqm9477yacRXu9CNzJeb2KUHoFdJMpnxgvepsORF7QnNHtwmYAPaTRKZnAGCxPsnQYVneLcpIgt1SgCVxwB5TxDOX+GBbm5hXF5EWve8eEdhvQAvdVUP7KjEEzac8EClv0zu9dw7C/QGvLQsPhGrh0sLALwbdKPfg+dD/H5wyVt5ebdAr8BLa6gH9lgnzGz0FN1MdoX5e+AxO2XdwAIoo9cor/mXL182Ddi0nlQB3LLJE1BzfJiMHwluiNHXt2G0bEEv2T1Dz2nphbNnpjqJ5dnAWfZmVnOdDee9WcPk62642X6Cc4RgL2+9YH56fLMAGtL7nA3vm/el9OqBA6zFrEwA+lN45nmA4g1WJAB5hc/BPgl53TdrfAVw1iId3itwOzT+n1lvAeRH+H7VxZ9B4V4pgAMpG2wamMPjcgNI4ZprQ1E5O36BPF6jgm7Jy3TRd2wRN0bcNJ0H7o920g32OMMWyidpe4R4rQAOoFT4pAzAMm9JFIL3DOB9Vje/ZKxelh763GgQyujRqERF8eAVp+MArtg0Pk/T4R6u19hK+bBPXWoPNlCWRRbgXl6CFxXS6sVqLuiR7yW77EWyhRzOBgQ2sH6jRk27vWE5hWoP9cAdlgxBBO8SdSjCFjI8DH2/b9o+BC/Gp5cIqwuq9/D23GJqMzxYw+P/W1qOUK71pXYdlQS8wbIpeFERX0P89w1UGBMMBEUDHq0lpSeEvC+RoQ14r2Dr5/g9BAhP8JuAR4SGi4B8KxR+ii2yZ0JaJRu6BVB5+GoXq24z0sRIsygCGys392GzooGOE1Y2/D8U8Q2pLGAD29fALmmXIh0YBzutpbZiuRXx0vAjsgAqzDuLShPXARcq29ymcoL2TchFQPBIbQa6rdRmliD+QPqQ7aSyebYAKtfSoiIumopjPLLUGy+b5ucrPWwmbfTE4E1ktQExGpJVkk7PR2gBVETR7Ck9qCvzGG+8lTQcIc5MQ+6FRHbScBhRx242IA7RRnV01jSWFjBAknjDxp43K5o0b3rsbNqu7wFMkfdtKju73cirsqGDLS+6tonm34EFUPCXAk+y9iWasDsd1DhP2vAQePSiTW2H/GaCMrp2kVdTWTV9yxaQVAxWWJ9isaJXyeFbBhv9IMtFlbyMB93Khm8ZrTDPRRmPtuJ0HbglSwvHZld4GsZ39+xMoHIkoPFOQi+HtfKfhRk5sxvKYI48ryryfVwRr9FDsgC8ROXsM1r+2LfOZpxXNQ7/4FsOCX/YQ9SdpQeW8LOhkZRXCJNZ6oFtSrUBLSrEuEFyZ0mF2ybH0nVUZ4LlMIL3neYE3wjCjrRXNwIbBuAhhsqeCmwpkq+hKKXJFcCl5nEXKamMoInd5diME2TpvMEBMCOJFpB1LaGzoeETSFUNg1Q+m3xtaRXAthbzSI8K0XmL7lG93rGualAR33l5KYADqlaoEPd9i8Nxpe88XPGHPX5yxasOHwx7nHv2OnKUpVEAl1mn/bhpCxMjvQEwzD+WFEFXPRc0MDaPJEpUsaZRAFubrF4CFHYsSYnXuCwkdHVo2DhADtGyDECxrZOHyzSQgY9LVh6+gGTe+lGZf5cECuCWrI/KuJFkhUrz2NcMMGZNzyGDyKsJZ6slKrVBwzebzF1nhDLr3MNW6aQArrKQo3ib8ZSPh+xRwc/hqSKhOtIH3YXs6pFB3liaErS/utzeyEbUwl5SMZ3TKYCdmzSfofFo0rdn7N6UIdy9lZ+hCWWlNuCdlxIeRq4Ob7u5gwdcW+TM7zJfugAxeZg3f1RlLy3PKj4a3wcLCB8mONglRfDVndhiAwDPL3qSB3T7fOvm56MMIFfl3u207NS3ScNndqqJbIayiX3orDwDtYCpHHugZCpeaTgqy0v8fpZ4GNLhd2nDP6FFulVI5oNclVtQE9nTZ+hxbjOXwEaLadI8qq7ZIHdtq5OuBTi2/FFJYoytGk2OoGtJHnHWdgiPmo7bbt++/WNI3whig4Wu8Qa63svqK7znx8xprzUAedAlRxg/MDc1s81TIb89GdLyCw6rfUAHFwrglo3O7h0qzGXL2UqzC/IrfQDeAgr8KlWiLboQGjsFcFulncqHXS8uF6WCQrh8C5msvVBbgrvouTiW9T3sNXHM05qdzkJbm6x5gtPT0yW4hDSDeQVvMmuumT8OeEaX8gWxvGW0PPOnrZyzemC5rZxScoIF46c3TpnWY3YF7xb1YeOGGQ/HUPOneqq6SxVC95naqAd2V6ZWnAgYToJYJXJP3BvwUnU+4ofndCNcdu2Jn4Qy0acemDWjw8N44hgi3GtZjLfwvPM+eN48u3Q1j4BG9wV6TvM8mTTsSC1g1oc3VeuOruJZ+dkd7bu5OaPPpSFXdqnigwZv1XebqfyeLEBAsYJUVaKG8RtWek8qdMaWPQnYxWcDyK84Bj3J15nxNeNDCxBgqCxxQ6Bmd3WtWckPcxreHUGG34VD23EbZ+kH0oZnRdXIiQXYrWZXt4FnoddYDdHjVhnY9Gbm1L+G/Wi3C/zm5FOVV9fxOonVdQkI8jcTXREq4wTb//iYGytWeinlCpMra4RtuGUQlS/u6+SUwBzWJATi58+faTfab5LHALaNYcNt3+z2///LfMfO+cewAAAAAElFTkSuQmCC;" vertex="1" parent="1"><mxGeometry x="500.99999999999994" y="52" width="57" height="57" as="geometry"/></mxCell><mxCell id="150" value="" style="shape=image;verticalLabelPosition=bottom;labelBackgroundColor=default;verticalAlign=top;aspect=fixed;imageAspect=0;image=data:image/png,iVBORw0KGgoAAAANSUhEUgAAAPAAAADwCAYAAAA+VemSAAAAAXNSR0IArs4c6QAAAERlWElmTU0AKgAAAAgAAYdpAAQAAAABAAAAGgAAAAAAA6ABAAMAAAABAAEAAKACAAQAAAABAAAA8KADAAQAAAABAAAA8AAAAADV6CrLAAArQUlEQVR4Ae2dy5LTWNembeAjGECV/2lPcF0BrivAzHpGMuwR5gowV0ByBWRFdEQPMaMeYq4gnVeAc9Szxjn7Z2UKov8vqgD38wrJyE4dto6W5KUIWdI+rvXu/e61T5Z6PTsMAUPAEDAEDAFDwBAwBAwBQ8AQMAQMAUPAEDAEGovArVu3Hg44GitgTYL1a8rHsjEEnBG4c+fO8OvXr/e/f/8+7vf7o81mMyTyyCGBJeHXhF9wXd24cePyn3/+WTrEa20QI3Bri65bgsuiotEJpD3hOixRuzVkXpDe/N69e+/XHCWmffCkjMAHL4LjFeBf//rXCMI+x2KKtIM6kIDMc/LpDJmNwHXUGstjB4GbN28+xmEKccc7HvU+yBKf3b59++2///3vVb1ZW26GQAsRgLhPGZd+5Nw06aT7/rqtE2JmgVtIhLaJDEHGWNuXB7a4abB5Fpku/au0gE3yNwI3qTQ6Jous2ufPn19D3EmLVFvSO3jBLPiiDTIbgdtQSi2UUVYXa/YO0WuZnCobIkh8BolflJ1u2endKDtBS88QoPK/hLznINFK8qoEkX+KHh+0Jq3nph5mgZtaMi2Uy+8yv2v4WDcrsmsm3x41dUOIWeCsxWnhIxEQef/666/zjpFXug6+ffv2ARJP9NC042bTBDJ52oeANmSwlqrx7qh90jtLfEKX+ooGaukco4aA1oWuAeQuZyHyYqGqHu9esoNqKfJAoi2BcNO+5+04m/uhTty1bDUE9/tlY0/az9B3Vna6edMzAudFzuL1/G7zR6DYkqgEWK4gici6oNu6KDL21AQU8cfIdEJ62v1VytE0EpeilCVyXAiIvJql5SxjV9WKZaczWfOqUPTl1cyy/qVUWOamjomrws/S7RgCVOB3RYkgC6v14rqhEfmQfV1Q/j+rbHDqxsTyOyIEZC2LVP5DETdcRL5FPi2iB3E/Kp1wunZvCDQaAVnMApVea6onTVJQVhR9cner0Uez73YYAs1HwLdauf5NJKvdVGsluSDiPG/DRNxJ80vPJDx6BHJ2nWV1J20AL6d+mhD7s6mNUxtwNxlrQCBn13nZtokeNTZ5LLHIX0MxWBaGQD4EqNjnGSv2sq1WKS+J29ZY5asJFqt1CFChT46FvEHhoG/mGWo1ckF8uxoCjUGAypxl4qq1lncfcAg5y9hwbcwK76NozwdFIGN3ct2lCqwhAAReZiGxSH/QArPMDYEwAlRe5+2SVN5GrfGG9ch7r/3UYLDOQuK2jv3zYmTxGoqAX3m1TOJynjZUjcJiof/UEYMAp2nhTC0BQ6AoAhkq7qrrVofexSIDiT8Uxd7iGwKFEaDCOnWftUZcOLOGJ5C1K63wdahkr9SpA+X25jFKE53/xr5vyytY03RJ8tfXG2jQZklhwn7+/5DDTpXcG4ErgbX9ibpaVQh8NDuQMu62qmVCzwjcfq5VogGvVR07JHx5DNY3wEFWmAbrbfCcdOUNIA+T/MvyMwKXheRxpjM7NrUhsKvOgzrWxI3Ax1YDHfWloo7TgmpmNi1M1/z9Hseli15Y4YFLuCJhjMBF0DvuuJ+KvHCuzdAxmbVwkd9xGOKSVGwYI3AsNOaRhAAWepHk32U/vTGzKfoZgZtSEi2Tg0q8bJnIpYl77969hUtiLsMQl3SSwhiBk9AxP0MgAoE1B86p42AauQfME7zhfFrVTjUjcEQBHbuTKhuV79cUHFSJj/bAurroLxwnnDO+G/Wnv7PteZm7tOzLDDVVwcF0M/ra710jxa1N72p91l/VJEZiNqpYTEy9VKVLDIgnFfgJnxiZp4Xrqj9WdQZOT/PqpzkEzldF19Fv5RXA4l1HQCT91u892Gz4yJfOH58c0bX3dcOPzr3jK893n289lrSoq02/t7zR761vbHoXkHu5F6WSR6zDy7///ntK4gOXDKi80mvuEraLYdB/VUQv4uv7TWMtxbFe/EybRPKkZwTOg5ofB8IOv/d7jzffe2OcxpB0EEXSDFmMoLLIf/Kdm+9EvPd8M7/Z7z2DyOsM6TgH1WYDLOkbIoiQdtSMgEhMw6k/jZyy7PRH1uyNwBkRC0j7/XtvAmFFtkoPkj/BSmvC5LTsjGj9Jz55MydN92+YOZJFiENggMcZ5TFmhvuZP0kWF3bH3Qi8A0f8w93pZtzf9J5C2knVpN2Xgnyf43a6717kmcryhtZ/kjcN4j7IG9fiRSMApidMdg2Zi3ji2qU2Akdj6blibQd0kZ/SRZ4yrh1WbGxjJSFftdClHUXJ6wsy0mx1FmtRmgLdTmikLjVDm0cuO91sGSmmMtx7sXn6bdP7QFf5DAINY4LV4tzv996XlZEreekiX3A+Scr38+fP4yT/LvuBTaruwo/zGedFRiwGDG3O1UCmxTMC7yGkrjKzwh+wurNDEzck2ix0n/tWEyUu3WZVOirQmHNOZhp/xx0ncR7m3usJP86ZsBSmYHKVAZcB3elUEhuBfUTVXYa454xvz3EaZQC6sqBY3k+czz6f9UWkQgeWd0ICL1MS+US431XpQuHC9yFnVsVYBy1zU8JO4g1/cJgD2Gn4hOkvv/wyohH9I4Nqoy9fvpwmhe8neR6Lnz9B9Q6LO6hLZ5GT/Jbkt1CeFMSS57XumZhYcVmXtXQkkmlcRZpJ+om84/1xl7px2kVE3LjjFcsfp3GeXXT3l96EZ+whorJJYxoVAJxPaABm+P0a5b/vRlqP4jZ8HD2B70211a33Zh+0sp8h7BUEnQP44iZkrXP3FRXmnAozTtJJlnefvEF4vUoGkj4PnveuayzLb8c0mQWhRMzXezjsPNJlTtyp5jcCCyK5kHgF/r/tZOA/HDWB2STxBlJNooApwy0gLRZ1VteOqn25ISYN1CaxgfLHvLP9uMGzb4VXPEdWNuJrrPckCN/1K5jOwfRxkp40av+R1qhlJHFkT+doCVwleSHuWxqG2Zezw/9nFmvxkYo2jKtskO895DuJ8w/c06xOmsUJ0mn71W/MhGnscMQVU2GhlwdiXc8dcIns6RzlJFZV5BVxb/V7vzHpNGkCeWV9qRhDzrjjEzt/JnGeYXcq2RnPOxMzYX9ZeVXusFsX75kPmKBXmp5zV901tqVxdJnYGrBsd7Kf7tFZYCasTplpfrkPRJFnEZdx7Wmd41oXedOsL2m88InpklzPocu3pOv4KK3r6JRZQwM5YPoJTNMIvqOdb9WXON7f8bj+sCTt38POR2WBNWFVKnn7vQss7u+yuE0jL9ZXrfUwXNh791dZyKu4muSiezjdSyf8OHJZuwxHaNO9Q49G6pxl1UkNHrieOsQbqRENhzsaArPOOyprtlmTU6z7PKKbPD7U5FS4EGPuJzHugfMsuMly1XpmSpdPJJ5kSbNFYZ+myPqJHkhmAitNhjJzLp9S0tfmkHE4zFEQWP8g+vZjg0ZY93z3/d4fdJdHTRjjximgLlnaLOnt27dncfHT3LW+icV4mxBukODXSi8arSmYjlOEP8s7fPCtsEiceID7OBzgKAjMP4iKb9Lo9y7VXYa4U6zuOgxi0+6jJjv2ZLx0/bfLXrztI5ZgEkdiLbNsA3bgxt9tljZvktv6hiBKxY1G5GEovDb9dPvwJ61GhbTE6oq4hdKoN/JJSnazFH8nb5EYsnpbKkMRXsRtCAmFadUt+rxB4EGS0DRm07zWN0gXK78C0+Ax7qoO1iDIq9Oz0Br3Yn0/xCGR5q6x7oaNHk3uLkfpQEVA7PgD0sXuuoqPFe+jtUwsgz4lsixq2eNzOYyPus7k/Dopd8h7sT82TQqf5JdWdopLmO3Wyk5bYMirljPXAXnfM9bV7PI6VwIHiuRvDEjKvfQvKgT7dB2sR5JcjfPz95AnkhehP9FwTUrUfUWaQ06no7ME9vc4j5xQ2A9El5mlIbW8rTtYGkrUGWuxbJ1SBxKYP4BM0rIGz0nJvY5hWp70drZhujuJlWOzBlbX+/tey8a7O+VNhUokMIFXOxHsoQgCr7C88yIJ5InbeQJjfU8YBA6zgKPxLl3mMZZ3liVeA8MOk2Si8FdJ/ub3EwHGmoufT7t3NJRv6e2c7rrW8xTuRXXVAk8yQckSEeQdNXhThrM6EPRX58AWMBEBje1F1P1AcsPyTvbdiz7v77KKS4/814Ff58bAerMGk1ePAwVTr1rfxfK2bbIqQa+0LnRCVPPaR0BEZdZ+gfsJ54BTr8iZcS39IN1x1kQ7R2Behj5xBqF75E1VndZ7mBrIAuwg4BN2tuNYwQNlo+W41JTv3r27ZB3YC9e5LjTqj1MRIIAmrDpmeV3UVpiha0ALVx8CWrKCvC49x0/BJg5J1zkC82+jhy6wQ/STDnWbXVT2wlBJHjgHtoC1IcBur9cumWGlF+FwnSKw94+jlC1vnvI/tkbuABEGpeX3af9oGfh7e1uuZnfE93eyaYydetAAL8KBOkVgdpGOwspF3Wu5qM3rvFE6hd1ooZfh56h7Nig4VZaouOZWLgKaeWY56p1rqvyLbB4O2ykC0y0ehpWLuT+Nce+K88pBkacOYSxIxQjoTwlMkL0hm4FLVjTOF/u7vjpF4H6KBZb17cBGjcSypou1Sgzww3Nk3WgHlCoMom4zLz74QBajDNnM9sN2isBY4LSW7HQfgK49J+0eCuvKpEnnsQjr25R7WV3K6CXd5nNkGmaQ6ypq/blTBE4CQ8tG7LbaGT8khW+rX/DPoDT5sdRPXXf+pKVl/ukIBMTF6n4k9Gl6jN0QdJ8j4xx0IwfdiIf69wwtktbAeGeV9y+L4a7o8U8oNeNdQi/C62LxoXvzL//zX8rrDWGGe+FWpLUK3JBjwf2asEsWzS8d0w+iH/yKLu/R4XGaIP74a+cth2lxzD8bAiIupH3OOSVmWg8xMnHKU/83nkV51kpgtfgI8hiBtONEL7T2ZAquUQImuZHGhNfHDAnzKCmc/L79nzf/l3zUbYk61IAMQx5j3UsugNcfqNn44a2/rXGeo8e1yQSFb8qBLgtkSSUwYUZsE3xDmTxriuxdkUNzDPSGRNwJOuUiro9F4v+N+1UDJtJSoZ5ChhPyGlaRH1Prv2l2jtfnLOI2cvzX/7r3vzdf/9//KCt/n9DaF/u2rDTLSsdv9Vek96tLmugiPYzELmClhPHXdJ9T51XfCx+UzTPKZhaXUCVjYFUgWvanWK4PZM5Hsr9PEWAYJ0RRd1q6xLQ1+9z79l//rWg+4fgUkHoResXqn9I17Hfoe3X5Kfi5qxzooQ375zYz7YrYbjjhRj14yflRvTzwLIW85PIiibySolQCi7hShG7DR5SYkf5ImVR9hCZuljF5yX0V41fUWa9wFZE/qvUtmlhZ8ZHnLEta6DDWJ0hVfkbkdOR80j5XwwduwcTUMD2mWwgaYP3fOLUMSyFwmLiId8o5cBOzeCgq3B9BKv0f39sNHrdX3Bd05U9xSNtmuI2T42ao1hcSvxYeOeKXGkVvhqQSvM+YqOQ+VYWkYr7jdBlHZ8yivcED0lLnPvikPVPDV4FGr7C8E5d0qdvFDgr5BCVek8qwWEqZY38CyBmzxKfhWWLGwUvGwQ+2qYX+MqgCoGIL9KorZiO+ESR9/Yq2hSPHTdAdXzDj/z6MdY60WhVFDTGTpKor3qQr12HFCvBKp/40rdscliE3gX0yvCmrBULwC9Kaa6/n/naxsMAu979MN1Pmtwcot4rbeaXJNSzmiHxH5KvzoUvaGcI0gsT0CJI+zp1BnW1QWfYlT3pbxYrhy8XWp+U3YOUtawZ1AnVGNap0iTGcqOeUJc9cBFZGVHhZXXW5ihyXgHWm78I0oWUXqWn9xig04fxpxXnIeTSCxPRUVCnK0CcOBm8dnTqxIECj189lVb98+fIAWb2lQ5+sQ+Suk6xktz2ukOE0i9XdxuQmE4H9LsUblD8JJ5LxXt2EOZXqLGtrkzGfQsF9XaWnhgjqRuU6pCuF8yRX5JIiSRcmFhckVyWJI6VFf+WrdXR9GlPdcY/scsPiXRXtbSkdHf5y5a+6J5+xrtSxAWXnEdO/DuTekEPzMWf6GFoR4+VMYN86vSPTYU4AShE4Z96Fo2msTyIic+YlIypt4lpeYeEcEvAbpDnylz1UcMjdOYgIvkwKjfwi4SgpTNP90PEtvc5pEeIGOjoRmJZSu6ZEXoGX53hVtKXJk2kVcUQEumCn4PE8Q/prxva/l2VtMuR7LSgN0SxPI3QtIXPIjICIiyE8LbMepBLYH+++ySwtERD4AoHLfnN9HlFKj+P3SOYkfN8x8VeQ/tQxbKXB1JuAxDMy8bqclWZmiVfa80wksF9JP+QoA41zJ4z9VME7e8gaZxhbrumF/FZGt6kMQCU7SyRnZo3LQDMyjStcNcadVVnmiQRmEkDkzTTegLjv6d9PqhQ6Eq4DOfokXpJ9qiUGm4OPhfdh8pcDT43I+8jke1avk5hndRmvWALn6To3sYLmK4Zssfw5gvO0WCpcCnacFu4Q/v6mjwl5Tzmta52tEDxrW8YehmzZJiwjYX0/ktjQNcFjJW+ADw3eAiv2MHiOuzIOjm004+LU6e53rU/IU+Pkx3Xm3bK8ruDInHo/O+RyaGRlyjH2fUHFPGtZAZQqrmuPhULffpy5VAEqSMy3yiLzhPNBBVm0LclLym9xaNKGQYv8Q3/Gbt7VsZNXgFKoKyxWGNvIe7Aa4bGI9GyYo7/coYb5LGSZx+g5xu1+w8StQhxNxqpntQi6x5RfFfnkTjOSwAg9cqmMfq6z3LkfZ8RBG9X2JyVV1jp7/uTX2K8rqi9qmNo+dr5Cn6UIqyFRuGtMYya1G3dEEhgph42T1ARqFAK+dZ6FhfJJ7ZFZxMZvABlS5wXCadR0L8u6JC/1mpZ0i5eh/5R7IjTN0sbhEklglHIe7wDEMC5xcz8uBHxSr9B6HtZc3W92r4nYIvQIwnjXIAxuZZL8ijopGXSIoCvdiLCc632iyq8tZJWs+8e1SSy6Dico/W4/YNIzcX4PdzeSwnbVL8NS0pO61gjbiLWsOCQbusoO7iu/4XCN0u1wkFGvh9lkPD+ole02MsnaqeFzwUwz/Mkpma8hUAABKuGfLhUxIsyfx1o51Xg54rYuUDQW1RC4hsDOO7F8Aua1pAO6hudU5OfXcumwg8jLfuhzVEzFjTHYvMNQmGqHRoDxxFmEZc3and7QnTw/BmuscS94fXTF7BgwOXQdPur8s1RGl0orInM+7hqosrro9cYFg3AYEb5rWJg+DUFAs3/hylbyvV5+/o40n7fZCgmjPMQNYXnakOI2MTqCwHYZiUo2RafXdenFeNDboqb1OfK+auoylEjLq1nVi5hwjorgg66N/TdSEb0s7uEQ2BIYyzJn/ffQ3V0ttnu7Y3TVKWjqeHWpv/54Hwy8TQbkPeZ+SPY6SzvYNLDFvLRELaGjRWBbmbCCH0Fh2HQkINZiT8Y1RFvuuSU+oqtHUgUirqzqIDFCiZ7Ibxs5SsTz2JPyCOx3E0VgO6pHoDHvxqpeVcuhagS8dWDGn85jOyzI26qF6nL66pp3WT/TrV4EPAJnqVRs1pgQ/lm9YnYnN7rsD7qjjWlyaAQ8AvvjQGdZIPGMSa/fiXDpHMkCBgjUNt4OMrRrdxHwxsBM6mxcVdyfRSXuKXFfusa3cN7f1zzcDQtDoCgCN4ruDoLQp7xu5De61e+LCtPS+Hq52R9ZZC+KeZa8LGy3EbhB93lYVEX9H5Nutf5O9+iIiHwFbnqZn/CbF8XQ4hsCeRAohcBBxnrbgYgsi+xbJVXyrh1XNFLPRFzOszzKldFo5snX4nQPgZ2/E5alniwyZJ6qkvvd62dU+rek/6msPGpO55MaJE3cSSdN4hXJ3whcBD2LG0bgFsTSlsGwW6n3/utOZiSq0/uOKyQYqRL7eWsN+lf5NelAtgtk1NsJ59qnjcxNEs9kMQQ8BCJfalclNv6fFpbhPPx9yOqSiswDyONdfUt1Pxy25Psr8lqRpvZfa+/1kn9LLcPvWKqCuL5+JatiyR0jArUTOApknzAr/BZR/oHb/uwtpNvuaQ7CxFzXdIG3jcbdu3eXcR9fo3sck0SpzoNSU7PEjhaBW5CgSgtXKrCaJItIcB7hds0pbEkh7zV/czAE2oiAJrGGbRTcZDYEDIFer5JZaAPWEDAE6kHACFwCzhpTl5CMJWEIZEbACJwZsusR4ibEroc0F0OgXASMwOXiaakZArUikJnALMd8ZDnndZvfLlkRwl3cNloRVJZsWQhkJjAZa8PFlPXSD5B5+7pYSP2wLKHamI6/IaSNopvMLUag6EYObaQ4Qf8TrbNCaEHh7WjCXa+LXVCxPzX1lbFllZt6IzRojdsOWpZ+lk5zEehDMu1qqKPyrbVVkbzWIrcslk5mcC/bNgmkLzN8/vz5MbpoH/mY65DT+UBvez+0M1oWMAmBPpv1F1TCQ3d/d8iNwNutj4cmuMjKx6kf0MMYQzz9CWOEfMMkUNP8jMBpCJm/KwJFu9Cu+aSFU1d87AdSl3z71XS+/Bd0zX3vnqy3eg3B4Vn04EHd9uA+fGWMfhX+k4L81PUl323vQySVu4jKxZNJ+QcHYYNbuxoCjUBABA6ToRFCpQgh0u0H8UgvR43Fow4+j7LfEPTi/rgQkX5UkuZmCBwcAb2RY+kqhbp+nM8I39Y/5ruqauEMgVYgoGnjTBYYqzX75ZdfhhD5LXGNyK0oZhOyqwgwZPz5P1lXJTVrDJEnPpFlkS9d41o4b4zt3OsxvAyBJAT0WtlVUoA9vx1r7RN5xrhzREPwyLfKe1E6/6heyCt0V0PmdIDXDo5OkSyQIRCBwI39mdmIMFunpPGy/0ZKWeX/UGXmfL+N2M2bS+kJGQecp3l6Mt2ExbSqE4FgGUld4AdlZOxvypiR1szf8HDC/Qnk18aHth+fIO2cc7b/dhDtNoPETvoRf+UUsOOB7r6I338AkqPvm+yffe33eb8ZuwHD0N3a9D6tz7xNRGHnTtx7BKZCratYOkkg8xj0tuuvDUfSIy0yzhn3z8uQtYsEHkw3g6/93oO+t37eGwU49Te9EYQa+M+6bv160St+XtAEryDpyOv1FUY+EE/Iu89/Lj0i40+S93tLvNdeYv0f72T78rp/EZl4Ax09AkPeBbI9rFK+MJmVj79/+ITKrO2IleadQ68r5FoQLytpr4hzP0d+rYgii0nlH0KSIcQcQomh98z1Kw89Tl3Cx/5z2O9Q98g0JG+dEnjsXX/ce7ciO3qtCbf0rpA8sOxY80us+Q/CbyMe7iboQrsK5BouVaP918symTbWZBjE0UaNEQmU0qVPFeRHgEu6v9pSuqBh2XmtrGN8Lxiyr0jjflqc/e53WvhD+GNRh9/6NOrf2e/9w2qOZDG594796yFkrDJP9BuQvnSX0gwBf+Qma37v+WbF4wqWLyD28uamd3WoLjoNTK/nk+f8h4jxv5pprrPySS5JA7G9KwTxrjkttrrCS5ITyVa651yXqY/rvnL08XBHlkYd914wT/G9N0EodXuHjRKuHcIsKNhV/0ZvSVu3rGPs7VlgLSVpq2HTjhC5Fmmy+fua1WpuD+mVZZZ9GzHnjRoFh8alUWvmd6ebMd3hp6h8svm+HavmRODoo3kWGxy9Y2/sLeOxlodIvmGyTd1yrPcF1nsl9zyHR2BVcqyr1jPbMrF0Tdeo/xzTAFwLV6UDltUroKQ8ZPWT/Ovyw9o+xdqeajyLtbWjegRGQRYe3vyoW+6TfAGrX3058+ZdgmBO1+26h6yHUwwLVBSBVdEEisQXcRnD/YmVmFF/hkXSsrilITDubXrn96abSdYUtwSm67fIGtnC7yLg0ghq/L0bq54nJqVGzK6e+8Qd1JOr5ZIFASzyG0h8kiXOlsAulS9LwscY1qV7TJhV3dioZf9GC0++47rztvwyIrDpvdaaumusLYG1fOIaycLlR6BuAqtFV8tOd9m5UuTXzmIWRUDDGubAJq7pBOvAvS5MZLkqXVU4l9l8halrck0tOZb3TVX61pJuv3exl48MzTrsxqzukoq/4xb2T7on7oC4o6gw+GmCbyg/735TzyYdGtznZHmmfNOOLYEVUN1oh2WQtDSP1t9vBBP1r3NZixnOKcIMEgU6hOdPUi7Jfk03cK11U4lChVwfYFPEPAsMmk8A2wDXcURc+Y1C7gMmqZw3JqnR0PKey6z0DoH9iayHoYx3blkmec1y04wNCxdRyzY7ge0hCoFa14C1vktlqPfYIyeWa4UMqwMRsxLd9xqYhWsm6hFBfBF7DC4TLO39hLgn+C0S/D0v0vl5QEzGS5t3P10S77SbaUGI+b179y78vc6JEbrsCXaPwU6FcxqnJ3jV9jpZKov2J3+MkyW3e997ecOa+IvAckLOVZHNCLllaXFELOwCq/wwTgU1fJ//6P8W5x+471hgTWRl2JE1pMJOSGjivzlSWxOXPGs/8UWdXcVAmTqvd+7cGdILUQGo0dOZmr2PT2q4MgJ8K2nGmd1C79HMK1eXLl0Zslsa2n7dG6oRTmsYdwjsMoZLAHfkW6CJ/wbItSosbgtd6Xpftbnbra2aDCEeoIuuY3SUtc10uOzUypRgQmBVgATvRC+RlgCzmzTGVCBZWzsOgIDfCM+Sst4hsAJCtD+oaJoFK3oMIO+YRMayTnqFK2lromyB2xo3tereC9yZmb32zmb8DnYgz0Pkk/z6d5Tk16dTBhKI+9xy0c2eg23u+BkjjrOEh7RP0GxNhVgaabMgV2lYleEsKYdrBGaJYwrR1Oq+TIqY1w8CjP24J7qqQvsW23P2CR7cLwOrhbv37yF5ZCW8urvodd9L1P8h3RG3HilFUjkHsoVJVoSwSjM4yONZU3sgkPfq81l/Hshq12YgQIM6TJPkGoEVgQp8SqWfUeFmVOCHaYmU6R+QSGnu3W+tX5jwLnkrfNJRFklj8riiQZzQgCxi/Jvg3GTZmoDPYWRImOQKBNruxAocgqvGw3Qbx1S+R1iPi8Ddru4IgN0fvORvdAjy9ukOu0pKS79yDWvh6kVAa85JOcYSOIikyiciM377HSK/DdztGo+AGrzbt2//BnbTQy2vQcplvITm0xYEmMgaJsmaSuAgssZvEHmiionbK86rwM+uPxAQcdVjUYN36GU0rdFaubQfARriYhZ4HwJVTI2ROYdU2GeqtPthju0ZDN6qhyLiHqK7HIV3sDUxys/c2oNAv2wCh1Wnws5UaY/UKqsH8kq6g8GkaTPMzE6uwmVl9+1EAAs8SJLcuQudlMieVX4ii0R4vaKncwe6ved8oh6IeiKH7irHAZy2gycunrk3DIGUmehSCBxWGWukdylvP3ymCh/2b+n9JXo802dj0O1EOrZCjx/7llshqgkZj4D+BBHnWzqBg4w0+0pFVxf7pI3fS/It7TN1kbG0I+lyqBnlANOsV8ZPy6xxLHzzEPD/wRQpWORGjsiQBRz9ij8jiSZ/L+kK0i6QUf+uWgRkhbg4tfOw9d12llsWqWshcFigCDKP2QkV7DkeEvZ+OHyF9+oWy0Lp31OL8FgWGSvMttakF+T2stYcLbMqEBiT6CIq4doJHBbCJ/McN53eoS8afvnyZQSpgz8TDPHQqa2UIy6/6t7x+OSTVMFXxNe/opb7Sz1ttrJJOFC4S7pfdnQYgYMSOApXn9QL329L7KiwcgsIr3dNha1oXHjGs3FenXPXv4rCX+XrnIKmkF5B1O4jIDxWtd2KVCW9ZqIzvI+pKjEs3WoQqGwWuhpxLdUcCKxzxLEoLUHACNySgsorJktJRuC84LUgnhG4BYVURESWkpZF4lvcZiPQyjGwXvbFF3Yff9/0BrxNYvX5tf3NsdnVzKSrCoHWWWBex/lar0tlMvmMyZlTfawLt7OqAOpAuosO6GAqxCDQKgJ7RN14XxvYVefHpyh23ezJEDgCBFpDYG9DdwJR83xb9QjKV+uEq2PQ81h1bA2B2ZF8klhIG9syGIWP/a0wCpXuuLWGwMymDpNglz9d7HFSmGP102tjj1X3ruvdGgKznpm+HGJWOLK+0ritIj3MsfUItIbAVMK1A9pjLTE5hDuqIDR+q6NS+IiUbQ2BXSdjGCufHlH5OalqFtgJpsYGSup9tobArpMxfLroqY2Fd+tiUgXYDWlPTUSAj8yt4uRqDYE9BX5+PDpOnx/uNhbewcdx+LETxx6qRSDLsAbjFTv/0y4Cx7yVIALqsVnhn6gw/IitAD9D2V2dCDgPa1KMVqsITEWcu4Lc3/TeJb3NzzWdLoTTH/u7oEeXdIB4rmWySNK7VQT2uhKOr0qlhRuwZ/rcSJxU/Fu/wfbObmpBwPXLGWnzF60isJBFobMMCI+MxE5ojZxCWaDaEWACa5GUaesIjELzjDuLjMTUgETMNpleFJhUn8zPEQGneQl6m2nDn9YR2Ffo1BGnINjoG39BpDt9zJZmEYARcT1mXCLgqN4pjZi+BIs0SVpHYCn0+aw/oy99kaZc2N8fE39gdvpl2P2I7udJuh5545YETWV+9IoSvx+WNv6VYK0ksASnCzJNA0Dhrh28BODe883HY1tm0lgqCS92sA2vYWUOVSOQ2KhSZss0AVpLYG9GGhKnKRjljzUe8jaPc4j85lhmqdVlQ++zKDzkht86zs/cq0EAgk7pSV5Gpt7v/eHX8UjvwBEr3e6DP/LPtH0yrxYAsN70e2dYdAHW+Ur8y3QzhaxTMLsvzGSVeZ59Oevnagzz4m7xfiAgA8IbzafUw4nKhPLQ1zxnDBPnLhi1nsA+AIsyXl4OGLObji2fC7hNDwN2QxqtVdPlNPniEWg9gaVamSRWeoCywirPuZl/ed2/kJsd8QjwcTh9yyrym1X6NCsxB/ux+UaV9+2rfXc9k9aQi84mHku+t7X2BdP3tla6R5+Frnzi58rlEz8KW8bRCQILiLJJvAfuAjIv6Ga/dxmX7MVtzaP/nakHEpiKuSXYPtnwG7dGqQMK6n+ulmFKf0lDJtKv9XE9icSngEoxDJ0hsECpmMTKQtZZk0FL79pPnyX0IkX8MNZZ3dz0LurowmIVHkqEMCmpVCOcBr77WFc7DoJAYNEDa56J5J0isOAXiVkSOSsysVVXMaoRoEV44a1rl5DpzZs3n5LMRElB1iEXnXa0H4EVDe4KNVYMV16Fu+idI3BQVnrNLCR+Ezw3+Xqr3/u9aNecrtkpOr5ssp4mWykIrGmoH/3zzz9eV7y168BpUMiqiRhYuOh1trQEavRnGeGkSHZ37twZEt/IWwTE9sQd8EH6c7/M27sTywVvWTXWN0eMN59pvdMlThvD0BqftlFukzk3AoOgzDtrgcPQyBqz62WINX7VUCIvwvJmuVdLzHj3aZY4Frb9CFDmj6VFZ8fAcUXkz1Rvd77EhavL/QaTWH+d9c/y5mdj37zItT8eY+Hfj47A4WJjoktjT+9kwityI0I4fNF7Wf/Njw3qS7o+K8550WUkCPwRuYYpsl1pFtOfmb6fEta824PAi6MmcLic/H8nicwjtmU+DPtlvQ+ICrgrCLsivjaBLCHrOmtaSeG1A4oJjQ9JYeQHeS8IN44LxzrxNT/Ivt3IEY5HWkOede4chB/hUHkjuJNpNQ+f0HEZSloN3yr0vF2nDdzu3r27XHMEz2Vcsa6somzeJKWFnO+NwDEI0dUe6S92EFAVM/YAwCVhvMKDpOuiy0GxGUV4QLwzdvg8j/C65kS42sva39l1DT8qpsbtw30hqZAKO9h3J+zDsBvhLsLPcfcior8DahsEt2BN1XPjeR0syWwDHfgmS8N8YFEt+yIIqPvMuXE5VSmK5GVx60FAjV6Gcv1wFLPQ9UBfby7+OuDQNdekLrRrGhauegQ+f/58Qi5Dx5xGRmBHpJoWjG7fOKNMTzOGt+CHQSBTORmBD1NIhXONGkOmJDoKdu+khDPvAyGgYQ7lOs6SvRE4C1otD/v333+re2ZHQxFgwm2aUbRLI3BGxFoefNBy+TsrviavsL6PsyjIZNfCCJwFsQaFVeE1SBwTpSACf/3114QksjawcyNwQeAPFV2bBw6Vt+VbCQJO6/mhnK94q4dZ4BAgrbr1d/40/q+SrQL1QML6O+GGWbJnA8qpwpsFzoJa88LOsohEtztrFy1L8hY2JwKMfV9miQp5tTV2liWOhW0gAv6uHe3NddqNRbiPDVTjqEWS9c1QfirndXg5sPb9sUddWhUoT4FOSfa1a9K03k9ovedBeH/t8dfgOXzVWrPOsFv4nrTG4eeoez/+MMrP3DIj8Ik/OYzDe7eNwJkxbF4ECnUBUR42TzKTqEwEaDCf7XedbQxcJsIHSgsrOiHrzr4y6ECwNirbKPJKQCNwo4opnzB6zai6VsQ2EueDsNGxIO/bfcsbCMyrouzoAgJsw/tPxsP/iS6POO90QSfTwUPgkrL973FY2Bg4DpmWumtSitZ6gfiRE1MtVetYxf50+/btUfhF7vtAWBd6H5GWP2uGUoVOt+ui5aocu/h6tc80ibwCyCxwh6sJ4+IT1JsyQz3iaha5eWV9CUnXlM8C0bx3bek5vEyUJrIROA2hDvkHL69jTCVCD6gsQ646e7YMJRTKP8D4glRFUn3EzHsfV5kvwTMCl19mrU5Ru3zYJD+UEhB9rCuTY/qrm0gvog+53Ne9HT/e+CkcwGWhK1h5V/3RQM9VH0bgqhHucPr+Lq6BVOwo2a9kNaXfoQiqvJMOI3ASOuZXGgJhyy4r7ltyvbPa684HGeFe6o4y0lcXNvIISCnPwHISPtMYNDJhczQEDAFDwBAwBAwBQ8AQMAQMAUPAEDAEDAFDwBAwBAyBnwj8fx32accTKx0FAAAAAElFTkSuQmCC;" vertex="1" parent="1"><mxGeometry x="658" y="52" width="57" height="57" as="geometry"/></mxCell></root></mxGraphModel></diagram></mxfile>